<?xml version="1.0" encoding="UTF-8" standalone="no"?>
<!-- Created with Inkscape (http://www.inkscape.org/) -->

<svg
   xmlns:dc="http://purl.org/dc/elements/1.1/"
   xmlns:cc="http://creativecommons.org/ns#"
   xmlns:rdf="http://www.w3.org/1999/02/22-rdf-syntax-ns#"
   xmlns:svg="http://www.w3.org/2000/svg"
   xmlns="http://www.w3.org/2000/svg"
   xmlns:xlink="http://www.w3.org/1999/xlink"
   xmlns:sodipodi="http://sodipodi.sourceforge.net/DTD/sodipodi-0.dtd"
   xmlns:inkscape="http://www.inkscape.org/namespaces/inkscape"
   version="1.1"
   id="svg817"
   width="1086.3407"
   height="1489.0338"
   viewBox="0 0 1086.3407 1489.0338"
   sodipodi:docname="balloon1.svg"
   inkscape:version="0.92.3 (2405546, 2018-03-11)">
  <metadata
     id="metadata823">
    <rdf:RDF>
      <cc:Work
         rdf:about="">
        <dc:format>image/svg+xml</dc:format>
        <dc:type
           rdf:resource="http://purl.org/dc/dcmitype/StillImage" />
        <dc:title></dc:title>
      </cc:Work>
    </rdf:RDF>
  </metadata>
  <defs
     id="defs821">
    <linearGradient
       inkscape:collect="always"
       id="linearGradient5179">
      <stop
         style="stop-color:#ffffff;stop-opacity:1;"
         offset="0"
         id="stop5175" />
      <stop
         style="stop-color:#ffffff;stop-opacity:0;"
         offset="1"
         id="stop5177" />
    </linearGradient>
    <radialGradient
       inkscape:collect="always"
       xlink:href="#linearGradient5179"
       id="radialGradient5187"
       cx="-1639.8306"
       cy="-77.796608"
       fx="-1639.8306"
       fy="-77.796608"
       r="114.40678"
       gradientTransform="matrix(1,0,0,1.5600001,2529.6942,764.0531)"
       gradientUnits="userSpaceOnUse" />
    <radialGradient
       inkscape:collect="always"
       xlink:href="#linearGradient5179"
       id="radialGradient5187-1"
       cx="-1639.8306"
       cy="-77.796608"
       fx="-1639.8306"
       fy="-77.796608"
       r="114.40678"
       gradientTransform="matrix(2.5153574,0,0,2.0037904,4560.2822,504.87741)"
       gradientUnits="userSpaceOnUse" />
    <filter
       inkscape:collect="always"
       style="color-interpolation-filters:sRGB"
       id="filter5217"
       x="-0.20804888"
       width="1.4160978"
       y="-0.26116371"
       height="1.5223274">
      <feGaussianBlur
         inkscape:collect="always"
         stdDeviation="49.892541"
         id="feGaussianBlur5219" />
    </filter>
  </defs>
  <sodipodi:namedview
     pagecolor="#ffffff"
     bordercolor="#666666"
     borderopacity="1"
     objecttolerance="10"
     gridtolerance="10"
     guidetolerance="10"
     inkscape:pageopacity="0"
     inkscape:pageshadow="2"
     inkscape:window-width="1920"
     inkscape:window-height="1057"
     id="namedview819"
     showgrid="false"
     inkscape:zoom="0.32777778"
     inkscape:cx="1544.8823"
     inkscape:cy="406.23479"
     inkscape:window-x="-8"
     inkscape:window-y="-8"
     inkscape:window-maximized="1"
     inkscape:current-layer="svg817" />
  <path
     style="fill:#000000;stroke-width:1.33333337"
     d=""
     id="path5073"
     inkscape:connector-curvature="0" />
  <path
     style="fill:#000000;fill-opacity:1;stroke:none;stroke-width:1.33333337"
     d="m 514.68431,1486.4214 c -38.7682,-11.0886 -53.5915,-37.6169 -32.4028,-57.9892 2.2246,-2.1388 4.0448,-4.3409 4.0448,-4.8934 0,-1.0682 12.7547,-22.7771 21.8657,-37.2162 3.0072,-4.7658 8.6329,-12.4158 12.5017,-17 l 7.034,-8.3348 -6.3674,-0.21 c -3.502,-0.1156 -7.2674,-0.1419 -8.3674,-0.059 -1.1,0.083 -5.6,-0.466 -10,-1.2207 -4.4,-0.7546 -9.7246,-1.6253 -11.8325,-1.9347 -22.2286,-3.2629 -68.1243,-22.2609 -97.1306,-40.206 -30.4265,-18.8238 -66.1561,-46.1145 -95.5766,-73.0025 -13.4866,-12.3258 -49.8932,-49.1194 -62.7009,-63.3675 -7.5808,-8.4334 -16.5699,-18.3334 -19.9758,-22 -31.8389,-34.2763 -94.9436,-120.3788 -115.798603,-158 -1.8294,-3.30003 -6.4932,-11.70003 -10.3641,-18.6667 -8.6895,-15.63892 -23.8442,-47.10189 -34.3591,-71.33333 -20.2778,-46.73015 -43.7037,-133.13667 -49.5230995,-182.66667 -0.4308,-3.66667 -1.0591,-9.02052 -1.3962,-11.89744 -2.8777,-24.56078 -4.91440002,-72.62679 -4.18720002,-98.82007 C 1.7417075,560.20384 5.1132075,537.32052 22.142707,468.3212 c 7.6299,-30.91432 25.2101,-83.09808 32.2232,-95.64857 0.7115,-1.27339 1.2937,-2.8355 1.2937,-3.47136 0,-1.64859 15.9967,-34.5878 23.9167,-49.24752 15.4564,-28.60942 39.263603,-62.95796 62.187803,-89.72323 69.9105,-81.62437 165.6666,-138.452751 277.2288,-164.526961 29.3786,-6.86632 35.6039,-8.12981 46,-9.33618 2.5667,-0.29783 12.6314,-1.53961 22.3661,-2.7595 14.6945,-1.84142 26.2393,-2.10901 68,-1.57613 27.6653,0.35302 52.7006,1.03616 55.6339,1.51809 2.9334,0.48193 7.1334,1.11973 9.3334,1.41733 50.1059,6.77801 99.8059,21.28146 148.6666,43.38382 8.4334,3.814851 15.9334,7.400021 16.6667,7.967031 0.7333,0.56701 7.0333,4.17471 14,8.01711 24.7485,13.64977 57.1586,36.4393 81.4787,57.2927 12.8476,11.01621 55.3297,54.09668 61.2559,62.11868 2.8635,3.87608 5.787,7.40633 6.4968,7.84501 2.506,1.54883 25.4662,32.68572 38.5983,52.34412 29.06299,43.50675 49.80319,84.37257 69.89489,137.71889 9.9225,26.34559 22.3507,74.41051 24.1334,93.33334 0.3108,3.3 1.5359,15.3 2.7223,26.66666 3.3171,31.77896 2.5661,104.03654 -1.268,122 -0.3131,1.46667 -0.889,6.86667 -1.2798,12 -1.0732,14.09531 -7.9274,48.26723 -18.1859,90.66667 -6.2762,25.94036 -23.6197,76.95118 -37.173,109.33333 -3.0693,7.33334 -6.7938,16.33334 -8.2768,20 -3.481,8.607 -30.19689,62.96956 -33.09029,67.33334 -1.2155,1.83333 -5.2826,9.11609 -9.0379,16.18392 -12.8872,24.25501 -31.4805,53.63291 -62.882,99.35521 -54.2332,78.9663 -124.7632,156.1938 -182.0533,199.3408 -26.4509,19.9211 -49.0917,33.9129 -76.6666,47.3792 -19.8817,9.7093 -48.5832,19.7756 -63.8878,22.4071 -2.505,0.4307 -4.9314,1.016 -5.392,1.3007 -2.2664,1.4007 -21.2063,2.0706 -22.005,0.7783 -0.5128,-0.8297 0.397,-1.456 2.2061,-1.5189 39.3893,-1.3687 94.0034,-23.6609 146.2959,-59.7148 63.4427,-43.7415 133.0483,-117.3807 196.6713,-208.0683 63.8521,-91.01411 104.56899,-169.02675 136.80219,-262.1099 5.1481,-14.86658 17.0082,-55.79638 19.7042,-68 0.81,-3.66667 2.6773,-11.76667 4.1495,-18 10.905,-46.17258 15.3874,-87.63965 15.2777,-141.33333 -0.064,-31.28334 -0.7389,-40.85418 -5.4061,-76.66667 -2.1056,-16.15728 4.2816,5.80665 -2.0728,-13.8418 -3.1023,-9.59251 -20.7487,-75.39295 -32.6966,-105.49153 -5.9381,-14.95914 -24.7534,-53.32479 -34.3294,-70 -16.51689,-28.76187 -36.66029,-58.59919 -55.28059,-81.8843 -5.5202,-6.90302 -12.5943,-15.75162 -15.7203,-19.66354 -9.7309,-12.17719 -53.6256,-55.38406 -68.3163,-67.24576 -62.4822,-50.44992 -125.1792,-81.309031 -202.6667,-99.751441 -17.963,-4.27528 -44.4504,-8.97014 -56.9263,-10.09008 -45.1269,-4.05101 -78.4878,-4.43891 -113.0556,-1.31457 -28.54,2.57953 -41.6415,4.71521 -73.3514,11.95699 -69.3558,15.83916 -129.672,41.956871 -186.6667,80.829131 -58.3278,39.78143 -106.8612,91.98679 -146.729103,157.83023 -26.0496,43.02207 -56.36,118.14596 -67.5142,167.33334 -0.7484,3.3 -3.9833,17.4 -7.1888,31.33333 -5.9235,25.7478 -7.8966995,36.054 -9.1902995,48 -0.3971,3.66667 -1.015,8.16667 -1.3732,10 -2.9114,14.90093 -3.4735,104.29689 -0.8216,130.66666 0.9219,9.16667 1.9307,19.66667 2.2419,23.33334 1.065,12.55098 2.1699,20.02158 6.0997995,41.2413 4.0774,22.01628 11.9587,56.97107 15.2024,67.42536 1.0239,3.3 4.2405,13.86867 7.148,23.48594 2.9075,9.61726 8.3496,25.51726 12.0935,35.33333 6.9858,18.31568 7.2419,18.95267 11.7348,29.18074 1.4495,3.3 5.435,12.44332 8.8565,20.31849 27.231,62.67644 70.569303,128.37954 141.237303,214.12334 12.2891,14.9107 40.7326,45.4064 63.5363,68.1205 71.948,71.665 138.3661,116.3306 200,134.4982 20.6336,6.0821 32.3261,8.0108 49.6667,8.1925 5.2058,0.054 42.593,-1.1584 42.588,-0.027 0,0.9166 -38.2985,7.6403 -42.4079,12.7736 -10.0683,12.5769 -13.975,18.3516 -19.8598,29.356 -2.7385,5.1209 -5.7043,10.2107 -6.5908,11.3107 -0.8864,1.1 -3.3125,5 -5.3913,8.6666 -2.0789,3.6667 -5.9748,9.1812 -8.6576,12.2544 -9.2978,10.651 -9.5803,20.9718 -0.8653,31.6074 11.9299,14.5588 37.06,23.4933 65.9687,23.4541 28.5404,-0.039 52.1937,-8.8253 60.8298,-22.5965 4.882,-7.7847 5.0614,-11.0338 1.3744,-24.8907 -8.9115,-33.4927 -23.4931,-58.7267 -41.9952,-72.6748 -2.5628,-1.932 -11.0375,-7.2245 -10.5436,-7.742 0.4939,-0.5174 11.0716,4.9085 15.2171,8.0383 16.1308,12.1789 31.9404,40.9089 40.0044,72.6981 4.1985,16.5511 2.6724,23.2249 -7.4389,32.5316 -6.5193,6.0005 -17.0408,11.3492 -27.4244,13.9416 -12.1142,3.0243 -51.5311,2.6971 -62.7829,-0.5212 z m 62.5224,-57.6485 c -3.1825,-1.4613 -5.4906,-2.9527 -5.1292,-3.314 0.7115,-0.7116 11.5821,4.5032 11.5821,5.556 0,0.7796 0.5245,0.9619 -6.4529,-2.242 z m 9.1196,-6.4517 c -2.5667,-1.4052 -4.1869,-2.58 -3.6005,-2.6108 1.413,-0.073 8.9338,3.8364 8.9338,4.645 0,0.8727 -0.078,0.843 -5.3333,-2.0342 z"
     id="path5077"
     inkscape:connector-curvature="0"
     sodipodi:nodetypes="ccscccccscccccccccccccsssscsscscssccccsccccccccssccccccssccccccccccsscssscccccccccscccscsccccccccsccccccccccccscccsc" />
  <path
     style="fill:#71b9f0;fill-opacity:1;stroke:none;stroke-width:6.92998791;stroke-miterlimit:4;stroke-dasharray:none;stroke-opacity:1"
     d="m 506.44071,1354.9273 c -49.5694,-5.3963 -110.7873,-36.0497 -172.3729,-86.3115 -57.6975,-47.0886 -140.868,-138.821 -192.5485,-212.3703 C 79.722707,968.29934 40.563307,878.77536 18.078607,774.04209 8.8467075,731.03996 8.1687075,723.62708 6.8398075,651.15715 c -1.5745,-85.86457 0.053,-102.93763 16.0107995,-167.89939 28.8983,-117.64455 74.7218,-202.59663 149.258703,-276.71021 69.7254,-69.32955 143.5778,-110.448621 243.6559,-135.661251 51.5578,-12.98892 86.2036,-16.3495 149.595,-14.51045 136.4609,3.95888 243.4379,49.866091 341.363,146.489691 49.8938,49.23061 99.09329,120.33395 127.12329,183.71892 18.6633,42.20399 40.1573,114.54843 44.868,151.01695 23.9484,185.39908 -53.5759,404.31222 -216.56479,611.53549 -31.9636,40.6384 -112.8046,120.6443 -145.0475,143.5493 -33.4834,23.7861 -88.4498,51.2566 -114.9572,57.4519 -22.8967,5.3515 -69.2377,7.6704 -95.7043,4.7892 z"
     id="path5127"
     inkscape:connector-curvature="0" />
  <path
     style="fill:#71bdf0;fill-opacity:1;stroke:none;stroke-width:6.92998791;stroke-miterlimit:4;stroke-dasharray:none;stroke-opacity:1"
     d="m 517.11861,1482.1474 c -21.0239,-6.649 -32.0938,-13.9561 -37.1244,-24.5054 l -4.8603,-10.1922 22.633,-36.1954 c 23.1388,-37.0045 29.6191,-42.9754 52.2609,-48.1527 7.3549,-1.6818 10.6863,0.2396 24.6837,14.237 12.7009,12.7009 18.2543,21.5568 25.8196,41.1744 5.3011,13.7462 9.6384,29.0139 9.6384,33.9281 0,25.0733 -53.5967,42.1839 -93.0509,29.7062 z m 65.5933,-53.6985 c -2.517,-1.6266 -6.6356,-2.9574 -9.1526,-2.9574 -4.0678,0 -4.0678,0.3286 0,2.9574 2.517,1.6265 6.6356,2.9574 9.1526,2.9574 4.0678,0 4.0678,-0.3286 0,-2.9574 z m 7.6271,-6.1017 c -1.0371,-1.678 -3.2584,-3.0509 -4.9364,-3.0509 -1.678,0 -2.2024,1.3729 -1.1653,3.0509 1.037,1.6779 3.2584,3.0508 4.9364,3.0508 1.6779,0 2.2023,-1.3729 1.1653,-3.0508 z"
     id="path5129"
     inkscape:connector-curvature="0" />
  <path
     style="fill:#71bdf0;fill-opacity:1;stroke:none;stroke-width:0.43312424;stroke-miterlimit:4;stroke-dasharray:none;stroke-opacity:1"
     d="m 20.704807,793.41622 c -3.6989,-16.57889 -6.7254,-31.61671 -9.3349,-46.38241 -2.3566995,-13.33566 -3.1166995,-19.01487 -4.4138995,-32.98729 -0.4771,-5.13877 -1.1635,-12.31932 -1.5252,-15.95678 -1.5181,-15.26524 -1.9496,-26.70721 -2.1239,-56.31017 -0.1693,-28.75774 0.3173,-53.1738 1.3775,-69.12076 0.3258,-4.90002 0.6207,-7.58468 1.3093,-11.91737 0.2667,-1.67797 0.7881,-5.5821 1.1588,-8.67585 1.2427,-10.37208 1.9965,-14.72383 5.2762995,-30.46081 0.2081,-0.9988 0.2102,-1.00106 0.945,-1.00106 0.405,0 0.7364,0.0537 0.7364,0.11936 0,0.0657 -0.4268,2.31803 -0.9483,5.0053 -3.5806995,18.4497 -5.3955995,33.74884 -6.2909995,53.03212 -0.7832,16.86575 -0.729,42.6005 0.1835,87.13983 1.1214,54.73427 2.1985,66.37613 9.2701995,100.20128 1.6947,8.10568 4.2355,19.55724 5.7104,25.73689 0.6753,2.82901 1.2277,5.253 1.2277,5.38665 0,0.1595 -0.2841,0.24298 -0.827,0.24298 h -0.8269 z"
     id="path5131"
     inkscape:connector-curvature="0" />
  <path
     style="fill:#71bdf0;fill-opacity:1;stroke:none;stroke-width:0.15313254;stroke-miterlimit:4;stroke-dasharray:none;stroke-opacity:1"
     d="m 14.113607,520.77713 c -0.031,-0.11807 -0.1082,-0.14866 -0.4754,-0.18798 -0.5004,-0.0536 -0.8104,-0.004 -0.9704,0.15633 -0.144,0.14401 -0.1784,0.32167 0.7275,-3.7622 1.0209,-4.60318 7.3059,-32.1044 7.6523,-33.48456 0.038,-0.15214 0.057,-0.15545 0.8981,-0.15545 h 0.8591 l -0.5324,2.17413 c -3.2613,13.31661 -5.8076,24.34604 -7.6289,33.04568 -0.2711,1.29529 -0.5096,2.29161 -0.5299,2.21405 z"
     id="path5133"
     inkscape:connector-curvature="0" />
  <path
     style="fill:#71bdf0;fill-opacity:1;stroke:none;stroke-width:0.15313254;stroke-miterlimit:4;stroke-dasharray:none;stroke-opacity:1"
     d=""
     id="path5135"
     inkscape:connector-curvature="0" />
  <ellipse
     style="opacity:0.40500004;fill:url(#radialGradient5187);fill-opacity:1;stroke:none;stroke-width:2.27149606;stroke-miterlimit:4;stroke-dasharray:none;stroke-opacity:1"
     id="path5137"
     cx="889.86365"
     cy="642.69037"
     rx="114.40678"
     ry="178.47458" />
  <ellipse
     style="opacity:0.52899996;fill:url(#radialGradient5187-1);fill-opacity:1;stroke:none;stroke-width:4.08296537;stroke-miterlimit:4;stroke-dasharray:none;stroke-opacity:1;filter:url(#filter5217)"
     id="path5137-4"
     cx="435.52234"
     cy="348.98929"
     rx="287.77396"
     ry="229.24719" />
</svg>
