<?xml version="1.0" encoding="UTF-8" standalone="no"?>
<!-- Created with Inkscape (http://www.inkscape.org/) -->

<svg
   xmlns:dc="http://purl.org/dc/elements/1.1/"
   xmlns:cc="http://creativecommons.org/ns#"
   xmlns:rdf="http://www.w3.org/1999/02/22-rdf-syntax-ns#"
   xmlns:svg="http://www.w3.org/2000/svg"
   xmlns="http://www.w3.org/2000/svg"
   xmlns:xlink="http://www.w3.org/1999/xlink"
   xmlns:sodipodi="http://sodipodi.sourceforge.net/DTD/sodipodi-0.dtd"
   xmlns:inkscape="http://www.inkscape.org/namespaces/inkscape"
   width="287.42764mm"
   height="393.97357mm"
   viewBox="0 0 287.42764 393.97357"
   version="1.1"
   id="svg7103"
   inkscape:version="0.92.3 (2405546, 2018-03-11)"
   sodipodi:docname="balloon5.svg">
  <defs
     id="defs7097">
    <radialGradient
       inkscape:collect="always"
       xlink:href="#linearGradient5179"
       id="radialGradient5187-1"
       cx="-1639.8306"
       cy="-77.796608"
       fx="-1639.8306"
       fy="-77.796608"
       r="114.40678"
       gradientTransform="matrix(2.5153574,0,0,2.0037904,4560.2822,504.87741)"
       gradientUnits="userSpaceOnUse" />
    <linearGradient
       inkscape:collect="always"
       id="linearGradient5179">
      <stop
         style="stop-color:#ffffff;stop-opacity:1;"
         offset="0"
         id="stop5175" />
      <stop
         style="stop-color:#ffffff;stop-opacity:0;"
         offset="1"
         id="stop5177" />
    </linearGradient>
    <filter
       inkscape:collect="always"
       style="color-interpolation-filters:sRGB"
       id="filter5217"
       x="-0.20804888"
       width="1.4160978"
       y="-0.26116371"
       height="1.5223274">
      <feGaussianBlur
         inkscape:collect="always"
         stdDeviation="49.892541"
         id="feGaussianBlur5219" />
    </filter>
    <radialGradient
       inkscape:collect="always"
       xlink:href="#linearGradient5179"
       id="radialGradient5187"
       cx="-1639.8306"
       cy="-77.796608"
       fx="-1639.8306"
       fy="-77.796608"
       r="114.40678"
       gradientTransform="matrix(0.26458333,0,0,0.41275002,655.62491,37.585592)"
       gradientUnits="userSpaceOnUse" />
  </defs>
  <sodipodi:namedview
     id="base"
     pagecolor="#ffffff"
     bordercolor="#666666"
     borderopacity="1.0"
     inkscape:pageopacity="0.0"
     inkscape:pageshadow="2"
     inkscape:zoom="0.35"
     inkscape:cx="-26.829648"
     inkscape:cy="304.51697"
     inkscape:document-units="mm"
     inkscape:current-layer="layer1"
     showgrid="false"
     inkscape:window-width="1920"
     inkscape:window-height="1057"
     inkscape:window-x="-8"
     inkscape:window-y="-8"
     inkscape:window-maximized="1" />
  <metadata
     id="metadata7100">
    <rdf:RDF>
      <cc:Work
         rdf:about="">
        <dc:format>image/svg+xml</dc:format>
        <dc:type
           rdf:resource="http://purl.org/dc/dcmitype/StillImage" />
        <dc:title></dc:title>
      </cc:Work>
    </rdf:RDF>
  </metadata>
  <g
     inkscape:label="Livello 1"
     inkscape:groupmode="layer"
     id="layer1"
     transform="translate(13.690013,164.57012)">
    <path
       style="fill:#000000;fill-opacity:1;stroke:none;stroke-width:0.35277778"
       d="m 122.48688,228.71224 c -10.25742,-2.93386 -14.17942,-9.95284 -8.57324,-15.34301 0.58859,-0.56589 1.07019,-1.14853 1.07019,-1.29468 0,-0.28266 3.37468,-6.02644 5.7853,-9.84682 0.79565,-1.26095 2.28412,-3.28498 3.30774,-4.49789 l 1.86108,-2.20524 -1.68471,-0.0556 c -0.92657,-0.0306 -1.92283,-0.0376 -2.21388,-0.0156 -0.29104,0.022 -1.48166,-0.12333 -2.64583,-0.32301 -1.16417,-0.19965 -2.57297,-0.43002 -3.13068,-0.51189 -5.88132,-0.86331 -18.024563,-5.88983 -25.699143,-10.63783 -8.050336,-4.98047 -17.503798,-12.20113 -25.28798,-19.31522 -3.568319,-3.2612 -13.200901,-12.9962 -16.589611,-16.76601 -2.00575,-2.23131 -4.384116,-4.85072 -5.285255,-5.82084 -8.424045,-9.06893 -25.120505,-31.85019 -30.638382,-41.80416 -0.48403,-0.873098 -1.718,-3.095598 -2.74217,-4.938858 C 7.7212094,91.197782 3.7115294,82.873202 0.92945936,76.461962 -4.4357007,64.097952 -10.633811,41.236222 -12.173521,28.131412 c -0.11399,-0.97014 -0.28022,-2.38668 -0.36941,-3.14787 -0.7614,-6.49837 -1.30027,-19.2158299 -1.10787,-26.1461399 0.42162,-15.1869101 1.31366,-21.2414601 5.8193802,-39.4975301 2.0187502,-8.17941 6.6701702,-21.98636 8.52572016,-25.307013 0.18825,-0.336923 0.34229004,-0.750231 0.34229004,-0.918461 0,-0.43619 4.23246,-9.151361 6.32796,-13.030081 4.0895096,-7.569568 10.3884996,-16.657619 16.4538586,-23.739267 18.497148,-21.59645 43.832618,-36.6323 73.350119,-43.5311 7.773093,-1.81671 9.420203,-2.15101 12.170833,-2.4702 0.67911,-0.0788 3.34206,-0.40735 5.9177,-0.73012 3.88792,-0.4872 6.94248,-0.558 17.99167,-0.41701 7.31978,0.0934 13.9437,0.27415 14.7198,0.40166 0.77613,0.12751 1.88738,0.29626 2.46946,0.375 13.25719,1.79335 26.40698,5.63072 39.33471,11.47864 2.23133,1.00934 4.21571,1.95792 4.40973,2.10794 0.19402,0.15002 1.8609,1.10456 3.70417,2.12119 6.54804,3.61151 15.12321,9.64124 21.5579,15.15871 3.39926,2.9147 14.63933,14.31308 16.20729,16.43556 0.75764,1.02555 1.53116,1.95959 1.71895,2.07566 0.66304,0.40979 6.73793,8.648099 10.21246,13.849376 7.68959,11.511169 13.1771,22.323586 18.49303,36.438126 2.62532,6.97061 5.91362,19.68779 6.38529,24.69445 0.0822,0.87313 0.40638,4.04813 0.72028,7.05555 0.87765,8.40819 0.67894,27.5263401 -0.33549,32.27917 -0.0829,0.38806 -0.23522,1.81681 -0.33862,3.175 -0.28395,3.72939 -2.09746,12.77071 -4.81168,23.98889 -1.66058,6.86339 -6.24938,20.36 -9.83536,28.92778 -0.81209,1.94028 -1.79753,4.32153 -2.1899,5.29166 -0.92102,2.27727 -7.9896,16.6607 -8.75514,17.81528 -0.3216,0.48507 -1.39769,2.41197 -2.39128,4.282 -3.40974,6.417458 -8.32922,14.190358 -16.63751,26.287718 -14.34922,20.8932 -33.01028,41.3263 -48.16829,52.74228 -6.99847,5.27079 -12.98884,8.97276 -20.2847,12.53572 -5.26037,2.56895 -12.85431,5.23232 -16.90365,5.92857 -0.66278,0.11393 -1.30477,0.26879 -1.42663,0.34415 -0.59966,0.37057 -5.61084,0.54784 -5.82216,0.20592 -0.13568,-0.21952 0.10504,-0.38526 0.5837,-0.40187 10.42175,-0.36214 24.87173,-6.26028 38.70745,-15.79954 16.78588,-11.57328 35.20237,-31.05701 52.03595,-55.05141 16.8942,-24.080828 27.66721,-44.721678 36.19558,-69.349928 1.3621,-3.93346 4.50009,-14.76279 5.2134,-17.99166 0.21432,-0.97014 0.70837,-3.11327 1.09789,-4.7625 2.88528,-12.2165 4.07125,-23.1879999 4.04223,-37.3944499 -0.0169,-8.2770501 -0.1955,-10.8093301 -1.43037,-20.2847201 -0.5571,-4.27495 1.13284,1.53634 -0.54842,-3.66231 -0.82082,-2.53802 -5.48977,-19.94772 -8.65098,-27.9113 -1.57112,-3.95794 -6.54934,-14.108855 -9.08299,-18.520835 -4.37009,-7.609911 -9.6997,-15.504369 -14.6263,-21.665221 -1.46057,-1.826421 -3.33226,-4.167616 -4.15935,-5.202646 -2.57463,-3.22188 -14.18844,-14.6537 -18.07535,-17.7921 -16.53174,-13.34822 -33.12033,-21.51303 -53.62223,-26.39258 -4.75272,-1.13117 -11.76084,-2.37335 -15.06176,-2.66967 -11.93982,-1.07183 -20.76656,-1.17446 -29.91262,-0.34781 -7.55121,0.6825 -11.01765,1.24756 -19.407563,3.16362 -18.350389,4.19078 -34.30905,11.10109 -49.388901,21.38605 -15.432558,10.52549 -28.27369,24.33817 -38.822067,41.759247 -6.8922896,11.38292 -14.9119198,31.259455 -17.8631397,44.273615 -0.1980102,0.87312 -1.05391,4.60375 -1.90203,8.29027 -1.5672603,6.81244 -2.0893403,9.53929 -2.4316003,12.7 -0.10507,0.97014 -0.26856,2.16077 -0.36333,2.64584 -0.77031,3.94254 -0.91903,27.59522 -0.21738,34.57222 0.24392,2.42535 0.51083,5.20347 0.59317,6.17361 0.28178,3.32078 0.57412,5.29738 1.6139,10.91176 1.0788202,5.82513 3.1640803,15.0736 4.0223103,17.83963 0.2709,0.87312 1.1219598,3.66942 1.8912399,6.21399 0.7692702,2.54456 2.2091602,6.75144 3.1997402,9.34861 1.84831996,4.84602 1.91607996,5.01456 3.10483,7.72073 0.38351,0.87313 1.43801,3.2923 2.34328,5.37594 7.2048696,16.58315 18.6714576,33.967068 37.3690386,56.653448 3.251488,3.94515 10.777159,12.01381 16.810638,18.02355 19.036255,18.96139 36.609371,30.77914 52.916674,35.58601 5.45931,1.60922 8.55295,2.11953 13.14098,2.16757 1.37737,0.0143 11.2694,-0.30646 11.26808,-0.007 0,0.24251 -10.13315,2.02149 -11.22043,3.37968 -2.6639,3.32764 -3.69755,4.85552 -5.25457,7.76711 -0.72456,1.3549 -1.50926,2.70158 -1.74381,2.99262 -0.23453,0.29104 -0.87644,1.32291 -1.42645,2.29304 -0.55005,0.97014 -1.58084,2.42919 -2.29066,3.24231 -2.46004,2.81807 -2.53479,5.54878 -0.22894,8.36279 3.15645,3.85201 9.80545,6.21593 17.45422,6.20556 7.55131,-0.0103 13.80958,-2.33503 16.09455,-5.97866 1.29169,-2.0597 1.33916,-2.91936 0.36364,-6.58566 -2.35783,-8.86161 -6.21588,-15.53811 -11.11123,-19.22854 -0.67807,-0.51118 -2.92034,-1.91148 -2.78966,-2.04841 0.13068,-0.13689 2.92936,1.29871 4.02619,2.1268 4.26794,3.22234 8.4509,10.82382 10.5845,19.23471 1.11085,4.37915 0.70707,6.14492 -1.96821,8.60732 -1.7249,1.58763 -4.50871,3.00281 -7.25604,3.68871 -3.20522,0.80018 -13.63427,0.71361 -16.61131,-0.1379 z m 16.54239,-15.25284 c -0.84204,-0.38663 -1.45273,-0.78123 -1.35711,-0.87683 0.18826,-0.18827 3.06444,1.19148 3.06444,1.47 0,0.2063 0.13877,0.2545 -1.70733,-0.59317 z m 2.41289,-1.70704 c -0.67911,-0.37176 -1.10778,-0.68259 -0.95263,-0.69074 0.37385,-0.0193 2.36373,1.01504 2.36373,1.22899 0,0.2309 -0.0206,0.22301 -1.4111,-0.53825 z"
       id="path5077"
       inkscape:connector-curvature="0"
       sodipodi:nodetypes="ccscccccscccccccccccccsssscsscscssccccsccccccccssccccccssccccccccccsscssscccccccccscccscsccccccccsccccccccccccscccsc" />
    <path
       style="fill:#f0ee71;fill-opacity:1;stroke:none;stroke-width:1.83355927;stroke-miterlimit:4;stroke-dasharray:none;stroke-opacity:1"
       d="M 120.30576,193.92109 C 107.19052,192.49332 90.993287,184.38291 74.69877,171.0845 59.432967,158.62564 37.427437,134.35475 23.753638,114.89486 7.4032894,91.625762 -2.9576406,67.939202 -8.9067108,40.228532 -11.349321,28.850872 -11.528711,26.889542 -11.880311,7.7152121 c -0.41659,-22.7183201 0.014,-27.2355701 4.2361903,-44.4233701 7.64601006,-31.126785 19.7701397,-53.603695 39.4913577,-73.212912 18.448184,-18.34345 37.9883,-29.22287 64.4673,-35.89371 13.641333,-3.43666 22.808033,-4.32581 39.580343,-3.83923 36.10528,1.04746 64.40962,13.19374 90.31896,38.75874 13.20109,13.025597 26.21843,31.838358 33.6347,48.608972 4.938,11.16647 10.62496,30.3076 11.87133,39.95656 6.33635,49.0535 -14.17529,106.97428 -57.29944,161.802088 -8.45703,10.75224 -29.84621,31.92047 -38.37715,37.98075 -8.85915,6.29344 -23.40234,13.56167 -30.41576,15.20085 -6.05808,1.41591 -18.31914,2.02946 -25.32176,1.26714 z"
       id="path5127"
       inkscape:connector-curvature="0" />
    <path
       style="fill:#f0ee71;fill-opacity:1;stroke:none;stroke-width:1.83355927;stroke-miterlimit:4;stroke-dasharray:none;stroke-opacity:1"
       d="m 123.13096,227.58141 c -5.56258,-1.75925 -8.49149,-3.69256 -9.8225,-6.48372 l -1.28596,-2.69672 5.98832,-9.5767 c 6.12214,-9.79074 7.83672,-11.37054 13.82736,-12.74037 1.94599,-0.44498 2.82742,0.0634 6.5309,3.76684 3.36044,3.36048 4.82978,5.70357 6.83143,10.89406 1.40259,3.63705 2.55016,7.67663 2.55016,8.97681 0,6.63401 -14.18079,11.16119 -24.61971,7.8598 z m 17.35489,-14.20773 c -0.66596,-0.43037 -2.55748,0.3534 -3.22344,0.3534 -1.07627,0 -0.27446,-1.04902 0.80181,-0.3534 0.66596,0.43034 -1.38475,-1.62296 -0.71879,-1.62296 1.07627,0 4.21669,2.31855 3.14042,1.62296 z m 0.8487,-0.37833 c -0.2744,-0.44394 0.30718,-2.0433 -0.13679,-2.0433 -0.44397,0 2.25703,-0.0711 2.53142,0.37288 0.27438,0.44397 -1.97762,1.2415 -1.53365,1.2415 0.44395,0 -0.5866,0.87289 -0.86098,0.42892 z"
       id="path5129"
       inkscape:connector-curvature="0"
       sodipodi:nodetypes="cccccccsccscsccscsc" />
    <path
       style="fill:#71bdf0;fill-opacity:1;stroke:none;stroke-width:0.11459745;stroke-miterlimit:4;stroke-dasharray:none;stroke-opacity:1"
       d="m -8.2118607,45.354602 c -0.97867,-4.3865 -1.7794301,-8.36526 -2.4698603,-12.27201 -0.62355,-3.52841 -0.82463,-5.03102 -1.16785,-8.72789 -0.12623,-1.35963 -0.30784,-3.25949 -0.40354,-4.2219 -0.40166,-4.03894 -0.51583,-7.06628 -0.56195,-14.8987299 -0.0448,-7.60882 0.084,-14.0689 0.36447,-18.2882001 0.0862,-1.29647 0.16422,-2.00678 0.34641,-3.15314 0.0706,-0.44396 0.20852,-1.47693 0.3066,-2.29549 0.3288,-2.74428 0.52824,-3.89568 1.39602,-8.05942 0.0551,-0.26426 0.0556,-0.26486 0.25004,-0.26486 0.10715,0 0.1948401,0.0142 0.1948401,0.0316 0,0.0174 -0.1129301,0.61331 -0.2509101,1.32432 -0.94739,4.88148 -1.42759,8.92938 -1.66449,14.03141 -0.20722,4.4624001 -0.19288,11.2713801 0.0486,23.05575 0.2967,14.48177 0.58168,17.56202 2.4527403,26.51159 0.4483899,2.14463 1.12064,5.17452 1.51087,6.80955 0.17868,0.74851 0.32483,1.38986 0.32483,1.42522 0,0.0422 -0.0752,0.0643 -0.2188101,0.0643 h -0.21878 z"
       id="path5131"
       inkscape:connector-curvature="0" />
    <path
       style="fill:#71bdf0;fill-opacity:1;stroke:none;stroke-width:0.04051632;stroke-miterlimit:4;stroke-dasharray:none;stroke-opacity:1"
       d="m -9.9557909,-26.781158 c -0.008,-0.0312 -0.0286,-0.0393 -0.1257801,-0.0497 -0.1324,-0.0142 -0.21442,-0.001 -0.25675,0.0414 -0.0381,0.0381 -0.0472,0.0851 0.19248,-0.99541 0.2701202,-1.21793 1.9330201,-8.49429 2.0246802,-8.85946 0.010099,-0.0403 0.0151,-0.0411 0.2376199,-0.0411 h 0.2273002 l -0.14086,0.57524 c -0.8628901,3.52336 -1.5366,6.44156 -2.01848,8.74334 -0.0717,0.34271 -0.1348301,0.60632 -0.1402102,0.5858 z"
       id="path5133"
       inkscape:connector-curvature="0" />
    <ellipse
       style="opacity:0.40500004;fill:url(#radialGradient5187);fill-opacity:1;stroke:none;stroke-width:0.60100001;stroke-miterlimit:4;stroke-dasharray:none;stroke-opacity:1"
       id="path5137"
       cx="221.75307"
       cy="5.4750633"
       rx="30.270126"
       ry="47.221397" />
    <ellipse
       style="opacity:0.52899996;fill:url(#radialGradient5187-1);fill-opacity:1;stroke:none;stroke-width:4.08296537;stroke-miterlimit:4;stroke-dasharray:none;stroke-opacity:1;filter:url(#filter5217)"
       id="path5137-4"
       cx="435.52237"
       cy="348.98929"
       rx="287.77396"
       ry="229.24719"
       transform="matrix(0.26458333,0,0,0.26458333,-13.690013,-164.57012)" />
  </g>
</svg>
