<?xml version="1.0" encoding="UTF-8" standalone="no"?>
<!-- Created with Inkscape (http://www.inkscape.org/) -->

<svg
   xmlns:dc="http://purl.org/dc/elements/1.1/"
   xmlns:cc="http://creativecommons.org/ns#"
   xmlns:rdf="http://www.w3.org/1999/02/22-rdf-syntax-ns#"
   xmlns:svg="http://www.w3.org/2000/svg"
   xmlns="http://www.w3.org/2000/svg"
   xmlns:xlink="http://www.w3.org/1999/xlink"
   xmlns:sodipodi="http://sodipodi.sourceforge.net/DTD/sodipodi-0.dtd"
   xmlns:inkscape="http://www.inkscape.org/namespaces/inkscape"
   width="287.42764mm"
   height="393.97357mm"
   viewBox="0 0 287.42764 393.97357"
   version="1.1"
   id="svg5806"
   inkscape:version="0.92.3 (2405546, 2018-03-11)"
   sodipodi:docname="balloon2.svg">
  <defs
     id="defs5800">
    <radialGradient
       inkscape:collect="always"
       xlink:href="#linearGradient5179"
       id="radialGradient5187-1"
       cx="-1639.8306"
       cy="-77.796608"
       fx="-1639.8306"
       fy="-77.796608"
       r="114.40678"
       gradientTransform="matrix(2.5153574,0,0,2.0037904,4560.2822,504.87741)"
       gradientUnits="userSpaceOnUse" />
    <linearGradient
       inkscape:collect="always"
       id="linearGradient5179">
      <stop
         style="stop-color:#ffffff;stop-opacity:1;"
         offset="0"
         id="stop5175" />
      <stop
         style="stop-color:#ffffff;stop-opacity:0;"
         offset="1"
         id="stop5177" />
    </linearGradient>
    <filter
       inkscape:collect="always"
       style="color-interpolation-filters:sRGB"
       id="filter5217"
       x="-0.20804888"
       width="1.4160978"
       y="-0.26116371"
       height="1.5223274">
      <feGaussianBlur
         inkscape:collect="always"
         stdDeviation="49.892541"
         id="feGaussianBlur5219" />
    </filter>
    <radialGradient
       inkscape:collect="always"
       xlink:href="#linearGradient5179"
       id="radialGradient5187"
       cx="-1639.8306"
       cy="-77.796608"
       fx="-1639.8306"
       fy="-77.796608"
       r="114.40678"
       gradientTransform="matrix(0.26458333,0,0,0.41275002,596.66062,-112.84894)"
       gradientUnits="userSpaceOnUse" />
  </defs>
  <sodipodi:namedview
     id="base"
     pagecolor="#ffffff"
     bordercolor="#666666"
     borderopacity="1.0"
     inkscape:pageopacity="0.0"
     inkscape:pageshadow="2"
     inkscape:zoom="0.35"
     inkscape:cx="674.59892"
     inkscape:cy="535.94557"
     inkscape:document-units="mm"
     inkscape:current-layer="layer1"
     showgrid="false"
     inkscape:window-width="1920"
     inkscape:window-height="1057"
     inkscape:window-x="-8"
     inkscape:window-y="-8"
     inkscape:window-maximized="1" />
  <metadata
     id="metadata5803">
    <rdf:RDF>
      <cc:Work
         rdf:about="">
        <dc:format>image/svg+xml</dc:format>
        <dc:type
           rdf:resource="http://purl.org/dc/dcmitype/StillImage" />
        <dc:title></dc:title>
      </cc:Work>
    </rdf:RDF>
  </metadata>
  <g
     inkscape:label="Livello 1"
     inkscape:groupmode="layer"
     id="layer1"
     transform="translate(72.654298,315.00465)">
    <path
       style="fill:#000000;fill-opacity:1;stroke:none;stroke-width:0.35277778"
       d="m 63.522592,78.277683 c -10.25742,-2.93386 -14.17942,-9.95281 -8.57324,-15.34298 0.58859,-0.56589 1.07019,-1.14853 1.07019,-1.29471 0,-0.28263 3.37468,-6.02644 5.7853,-9.84679 0.79565,-1.26095 2.28412,-3.28501 3.30774,-4.49791 l 1.86108,-2.20525 -1.68471,-0.0556 c -0.92657,-0.0306 -1.92283,-0.0376 -2.21388,-0.0156 -0.29104,0.022 -1.48166,-0.1233 -2.64583,-0.32298 -1.16417,-0.19966 -2.57297,-0.43003 -3.13068,-0.51189 -5.88132,-0.86331 -18.02456,-5.88986 -25.69914,-10.63784 -8.050344,-4.98046 -17.503801,-12.20113 -25.2879754,-19.31524 -3.568329,-3.2612 -13.200909,-12.9961797 -16.5896126,-16.7659897 -2.005753,-2.23133 -4.384119,-4.85071 -5.285264,-5.82083 -8.424042,-9.0689403 -25.120494,-31.8502203 -30.63838,-41.8041703 -0.484029,-0.87313 -1.717993,-3.09563 -2.742168,-4.93889 -2.299097,-4.1378 -6.308778,-12.46238 -9.090845,-18.87362 -5.365169,-12.36398 -11.563271,-35.225713 -13.102988,-48.330523 -0.113982,-0.97014 -0.28022,-2.38668 -0.369411,-3.14787 -0.761391,-6.49837 -1.300268,-19.21583 -1.107863,-26.14614 0.421613,-15.18691 1.313656,-21.24146 5.819378,-39.49753 2.018744,-8.17941 6.670173,-21.98636 8.525722,-25.30701 0.188251,-0.33692 0.342291,-0.75023 0.342291,-0.91846 0,-0.43619 4.232461,-9.15136 6.327961,-13.03008 4.089505,-7.56957 10.388495,-16.65762 16.453856,-23.73927 18.497153,-21.59645 43.8326206,-36.63229 73.350119,-43.53109 7.77309,-1.81671 9.4202,-2.15101 12.17083,-2.4702 0.67911,-0.0788 3.34206,-0.40735 5.9177,-0.73012 3.88792,-0.4872 6.94248,-0.558 17.99167,-0.41701 7.31978,0.0934 13.9437,0.27415 14.7198,0.40166 0.77613,0.12751 1.88738,0.29626 2.46946,0.375 13.257188,1.79335 26.406978,5.63072 39.334708,11.47864 2.23133,1.00934 4.21571,1.95792 4.40973,2.10794 0.19402,0.15002 1.86089,1.10456 3.70417,2.12119 6.54804,3.6115 15.12321,9.64123 21.5579,15.1587 3.39926,2.9147 14.63932,14.31308 16.20729,16.43556 0.75764,1.02555 1.53115,1.9596 1.71895,2.07566 0.66304,0.4098 6.73793,8.6481 10.21246,13.84938 7.68959,11.51117 13.1771,22.32358 18.49303,36.43812 2.62532,6.97061 5.91362,19.68779 6.38529,24.69445 0.0822,0.87313 0.40638,4.04813 0.72028,7.05555 0.87765,8.40819 0.67894,27.52634 -0.33549,32.27917 -0.0829,0.38806 -0.23522,1.81681 -0.33862,3.175 -0.28395,3.72939 -2.09746,12.77071 -4.81168,23.98889 -1.66058,6.86339 -6.24938,20.360003 -9.83536,28.927783 -0.81209,1.94028 -1.79753,4.32153 -2.1899,5.29166 -0.92102,2.27727 -7.9896,16.6607 -8.75514,17.81528 -0.3216,0.48507 -1.39769,2.41197 -2.39128,4.282 -3.40974,6.41747 -8.32922,14.19037 -16.63753,26.28773 -14.3492,20.8931703 -33.01026,41.32628 -48.16827,52.74226 -6.99847,5.27079 -12.98884,8.97278 -20.2847,12.53574 -5.260368,2.56892 -12.854308,5.2323 -16.903648,5.92855 -0.66278,0.11395 -1.30477,0.26881 -1.42663,0.34414 -0.59966,0.3706 -5.61084,0.54785 -5.82216,0.20593 -0.13568,-0.21953 0.10504,-0.38524 0.5837,-0.40188 10.42175,-0.36213 24.871728,-6.26028 38.707448,-15.79954 16.78588,-11.57327 35.20237,-31.0569797 52.03595,-55.0514 16.8942,-24.08082 27.66721,-44.72167 36.19558,-69.34992 1.3621,-3.93345 4.50009,-14.762793 5.2134,-17.991663 0.21432,-0.97014 0.70837,-3.11327 1.09789,-4.7625 2.88528,-12.2165 4.07125,-23.18799 4.04223,-37.39445 -0.0169,-8.27705 -0.1955,-10.80933 -1.43037,-20.28472 -0.5571,-4.27495 1.13284,1.53634 -0.54842,-3.66231 -0.82082,-2.53802 -5.48977,-19.94772 -8.65098,-27.9113 -1.57112,-3.95794 -6.54934,-14.10885 -9.08299,-18.52083 -4.37009,-7.60991 -9.6997,-15.50437 -14.62632,-21.66522 -1.46055,-1.82642 -3.33224,-4.16762 -4.15933,-5.20265 -2.57463,-3.22188 -14.18844,-14.65369 -18.07535,-17.7921 -16.53175,-13.34821 -33.12033,-21.51302 -53.62223,-26.39257 -4.752718,-1.13117 -11.760838,-2.37335 -15.061758,-2.66967 -11.93982,-1.07183 -20.76656,-1.17446 -29.91262,-0.34781 -7.55121,0.6825 -11.01765,1.24756 -19.40756,3.16362 -18.350389,4.19078 -34.3090504,11.10109 -49.3888984,21.38604 -15.4325636,10.5255 -28.2736926,24.33817 -38.8220746,41.75925 -6.89229,11.38292 -14.911917,31.25945 -17.863133,44.27361 -0.198014,0.87312 -1.053915,4.60375 -1.902036,8.29027 -1.56726,6.81244 -2.089336,9.53929 -2.431601,12.7 -0.105066,0.97014 -0.268552,2.16077 -0.363325,2.64584 -0.770308,3.94254 -0.919031,27.59522 -0.217382,34.57222 0.243919,2.42535 0.510831,5.20347 0.593169,6.17361 0.281782,3.32078 0.57412,5.29738 1.613906,10.91176 1.078812,5.82514 3.164072,15.073603 4.022301,17.839633 0.270907,0.87312 1.121966,3.66942 1.891242,6.21399 0.769276,2.54456 2.209165,6.75144 3.199739,9.34861 1.848326,4.84602 1.916086,5.01456 3.104832,7.72073 0.383514,0.87313 1.438011,3.2923 2.343283,5.37594 7.204868,16.58314 18.671461,33.96708 37.369036,56.65346 3.251491,3.9451303 10.7771666,12.01378029 16.81064564,18.0235503 C 18.611318,25.571043 36.184442,37.388813 52.491742,42.195663 c 5.45931,1.60922 8.55295,2.11952 13.14098,2.16759 1.37737,0.0143 11.2694,-0.30649 11.26808,-0.007 0,0.24252 -10.13315,2.0215 -11.22043,3.37968 -2.6639,3.32764 -3.69755,4.85553 -5.25457,7.76711 -0.72456,1.35491 -1.50926,2.70158 -1.74381,2.99262 -0.23453,0.29105 -0.87644,1.32292 -1.42645,2.29304 -0.55005,0.97015 -1.58084,2.42919 -2.29066,3.24231 -2.46004,2.81808 -2.53479,5.54879 -0.22894,8.36279 3.15645,3.85202 9.80545,6.21594 17.45422,6.20557 7.55131,-0.0103 13.80958,-2.33503 16.09455,-5.97866 1.29169,-2.0597 1.33916,-2.91936 0.36364,-6.58566 -2.35783,-8.86162 -6.21588,-15.53811 -11.11123,-19.22855 -0.67807,-0.51117 -2.92034,-1.91148 -2.78966,-2.0484 0.13068,-0.1369 2.92936,1.29871 4.02619,2.1268 4.26794,3.22233 8.4509,10.82381 10.5845,19.23471 1.11085,4.37914 0.70707,6.14492 -1.96821,8.60732 -1.7249,1.58763 -4.50871,3.0028 -7.25604,3.68871 -3.20522,0.80018 -13.63427,0.71361 -16.61131,-0.1379 z m 16.54239,-15.25283 c -0.84204,-0.38664 -1.45273,-0.78124 -1.35711,-0.87683 0.18826,-0.18828 3.06444,1.19147 3.06444,1.47002 0,0.20627 0.13877,0.2545 -1.70733,-0.59319 z m 2.41289,-1.70702 c -0.67911,-0.37179 -1.10778,-0.68262 -0.95263,-0.69077 0.37385,-0.0193 2.36373,1.01505 2.36373,1.22899 0,0.2309 -0.0206,0.22304 -1.4111,-0.53822 z"
       id="path5077"
       inkscape:connector-curvature="0"
       sodipodi:nodetypes="ccscccccscccccccccccccsssscsscscssccccsccccccccssccccccssccccccccccsscssscccccccccscccscsccccccccsccccccccccccscccsc" />
    <path
       style="fill:#b0f071;fill-opacity:1;stroke:none;stroke-width:1.83355927;stroke-miterlimit:4;stroke-dasharray:none;stroke-opacity:1"
       d="m 61.341472,43.486533 c -13.11524,-1.42777 -29.31247,-9.53815 -45.606995,-22.83658 -15.26579736,-12.4588597 -37.271325,-36.72973 -50.945124,-56.18964 -16.350351,-23.26909 -26.711276,-46.95565 -32.660353,-74.666323 -2.442607,-11.37765 -2.621994,-13.33898 -2.973599,-32.51331 -0.416587,-22.71833 0.01402,-27.23558 4.23619,-44.42338 7.646009,-31.12678 19.770144,-53.60369 39.491366,-73.21291 18.4481786,-18.34344 37.988293,-29.22286 64.467295,-35.8937 13.64133,-3.43666 22.80803,-4.32581 39.58034,-3.83923 36.105278,1.04746 64.409608,13.19374 90.318958,38.75873 13.20107,13.0256 26.21843,31.83836 33.6347,48.60897 4.938,11.16647 10.62496,30.3076 11.87133,39.95656 6.33635,49.05351 -14.17529,106.974283 -57.29944,161.802103 -8.45703,10.75224029 -29.84621,31.92047 -38.37715,37.98075 -8.85915,6.29341 -23.402338,13.56165 -30.415758,15.20082 -6.05808,1.41592 -18.31914,2.02946 -25.32176,1.26714 z"
       id="path5127"
       inkscape:connector-curvature="0" />
    <path
       style="fill:#b0f071;fill-opacity:1;stroke:none;stroke-width:1.83355927;stroke-miterlimit:4;stroke-dasharray:none;stroke-opacity:1"
       d="m 64.166672,77.146853 c -5.56258,-1.75922 -8.49149,-3.69255 -9.8225,-6.48372 l -1.28596,-2.69669 5.98832,-9.5767 c 6.12214,-9.79077 7.83672,-11.37057 13.82736,-12.7404 1.94599,-0.44497 2.82742,0.0634 6.5309,3.76687 3.36044,3.36045 4.82978,5.70357 6.83143,10.89406 1.40259,3.63702 2.55016,7.6766 2.55016,8.97681 0,6.63398 -14.18079,11.16116 -24.61971,7.85977 z m 17.35489,-14.20773 c -0.66596,-0.43037 -1.75567,-0.78248 -2.42163,-0.78248 -1.07627,0 -1.07627,0.0869 0,0.78248 0.66596,0.43035 1.75567,0.78248 2.42163,0.78248 1.07627,0 1.07627,-0.0869 0,-0.78248 z m 2.018,-1.61441 c -0.2744,-0.44397 -0.86212,-0.80721 -1.30609,-0.80721 -0.44397,0 -0.58271,0.36324 -0.30832,0.80721 0.27438,0.44395 0.86212,0.80719 1.30609,0.80719 0.44395,0 0.5827,-0.36324 0.30832,-0.80719 z"
       id="path5129"
       inkscape:connector-curvature="0" />
    <path
       style="fill:#71bdf0;fill-opacity:1;stroke:none;stroke-width:0.11459745;stroke-miterlimit:4;stroke-dasharray:none;stroke-opacity:1"
       d="m -67.176151,-105.07994 c -0.978668,-4.3865 -1.779429,-8.36526 -2.469859,-12.27201 -0.623544,-3.5284 -0.824627,-5.03102 -1.167845,-8.72789 -0.126232,-1.35963 -0.307842,-3.25949 -0.403542,-4.2219 -0.401664,-4.03893 -0.515832,-7.06628 -0.561949,-14.89873 -0.04479,-7.60882 0.08395,-14.0689 0.364464,-18.2882 0.0862,-1.29647 0.164227,-2.00678 0.346419,-3.15314 0.07056,-0.44396 0.208518,-1.47693 0.306599,-2.29549 0.328798,-2.74428 0.528241,-3.89568 1.396021,-8.05942 0.05506,-0.26426 0.05562,-0.26486 0.250031,-0.26486 0.107156,0 0.194839,0.0142 0.194839,0.0316 0,0.0174 -0.112924,0.61331 -0.250904,1.32432 -0.947394,4.88148 -1.427586,8.92938 -1.664494,14.03141 -0.207221,4.4624 -0.192881,11.27138 0.04855,23.05575 0.296704,14.48177 0.581687,17.56202 2.45274,26.51159 0.44839,2.14463 1.120643,5.17452 1.510877,6.80955 0.178673,0.74851 0.324829,1.38986 0.324829,1.42522 0,0.0422 -0.07517,0.0643 -0.21881,0.0643 h -0.218784 z"
       id="path5131"
       inkscape:connector-curvature="0" />
    <path
       style="fill:#71bdf0;fill-opacity:1;stroke:none;stroke-width:0.04051632;stroke-miterlimit:4;stroke-dasharray:none;stroke-opacity:1"
       d="m -68.920073,-177.2157 c -0.0082,-0.0312 -0.02863,-0.0393 -0.125783,-0.0497 -0.132398,-0.0142 -0.214418,-0.001 -0.256752,0.0414 -0.0381,0.0381 -0.0472,0.0851 0.192485,-0.99541 0.270113,-1.21793 1.933019,-8.49429 2.024671,-8.85946 0.01005,-0.0403 0.01508,-0.0411 0.237622,-0.0411 h 0.227304 l -0.140865,0.57524 c -0.862885,3.52336 -1.536594,6.44156 -2.018479,8.74334 -0.07173,0.34271 -0.134832,0.60632 -0.140203,0.5858 z"
       id="path5133"
       inkscape:connector-curvature="0" />
    <ellipse
       style="opacity:0.40500004;fill:url(#radialGradient5187);fill-opacity:1;stroke:none;stroke-width:0.60100001;stroke-miterlimit:4;stroke-dasharray:none;stroke-opacity:1"
       id="path5137"
       cx="162.78879"
       cy="-144.95949"
       rx="30.270126"
       ry="47.221397" />
    <ellipse
       style="opacity:0.52899996;fill:url(#radialGradient5187-1);fill-opacity:1;stroke:none;stroke-width:4.08296537;stroke-miterlimit:4;stroke-dasharray:none;stroke-opacity:1;filter:url(#filter5217)"
       id="path5137-4"
       cx="435.52234"
       cy="348.98929"
       rx="287.77396"
       ry="229.24719"
       transform="matrix(0.26458333,0,0,0.26458333,-72.654298,-315.00465)" />
  </g>
</svg>
