<?xml version="1.0" encoding="UTF-8" standalone="no"?>
<!-- Created with Inkscape (http://www.inkscape.org/) -->

<svg
   xmlns:dc="http://purl.org/dc/elements/1.1/"
   xmlns:cc="http://creativecommons.org/ns#"
   xmlns:rdf="http://www.w3.org/1999/02/22-rdf-syntax-ns#"
   xmlns:svg="http://www.w3.org/2000/svg"
   xmlns="http://www.w3.org/2000/svg"
   xmlns:xlink="http://www.w3.org/1999/xlink"
   xmlns:sodipodi="http://sodipodi.sourceforge.net/DTD/sodipodi-0.dtd"
   xmlns:inkscape="http://www.inkscape.org/namespaces/inkscape"
   width="287.42764mm"
   height="393.97357mm"
   viewBox="0 0 287.42764 393.97357"
   version="1.1"
   id="svg8"
   inkscape:version="0.92.3 (2405546, 2018-03-11)"
   sodipodi:docname="balloon8.svg">
  <defs
     id="defs2">
    <radialGradient
       inkscape:collect="always"
       xlink:href="#linearGradient5179"
       id="radialGradient5187-1"
       cx="-1639.8306"
       cy="-77.796608"
       fx="-1639.8306"
       fy="-77.796608"
       r="114.40678"
       gradientTransform="matrix(2.5153574,0,0,2.0037904,4560.2822,504.87741)"
       gradientUnits="userSpaceOnUse" />
    <linearGradient
       inkscape:collect="always"
       id="linearGradient5179">
      <stop
         style="stop-color:#ffffff;stop-opacity:1;"
         offset="0"
         id="stop5175" />
      <stop
         style="stop-color:#ffffff;stop-opacity:0;"
         offset="1"
         id="stop5177" />
    </linearGradient>
    <filter
       inkscape:collect="always"
       style="color-interpolation-filters:sRGB"
       id="filter5217"
       x="-0.20804888"
       width="1.4160978"
       y="-0.26116371"
       height="1.5223274">
      <feGaussianBlur
         inkscape:collect="always"
         stdDeviation="49.892541"
         id="feGaussianBlur5219" />
    </filter>
    <radialGradient
       inkscape:collect="always"
       xlink:href="#linearGradient5179"
       id="radialGradient5187"
       cx="-1639.8306"
       cy="-77.796608"
       fx="-1639.8306"
       fy="-77.796608"
       r="114.40678"
       gradientTransform="matrix(0.26458333,0,0,0.41275002,546.76776,97.30582)"
       gradientUnits="userSpaceOnUse" />
  </defs>
  <sodipodi:namedview
     id="base"
     pagecolor="#ffffff"
     bordercolor="#666666"
     borderopacity="1.0"
     inkscape:pageopacity="0.0"
     inkscape:pageshadow="2"
     inkscape:zoom="0.35"
     inkscape:cx="384.59891"
     inkscape:cy="530.23127"
     inkscape:document-units="mm"
     inkscape:current-layer="layer1"
     showgrid="false"
     inkscape:window-width="1920"
     inkscape:window-height="1057"
     inkscape:window-x="-8"
     inkscape:window-y="-8"
     inkscape:window-maximized="1" />
  <metadata
     id="metadata5">
    <rdf:RDF>
      <cc:Work
         rdf:about="">
        <dc:format>image/svg+xml</dc:format>
        <dc:type
           rdf:resource="http://purl.org/dc/dcmitype/StillImage" />
        <dc:title></dc:title>
      </cc:Work>
    </rdf:RDF>
  </metadata>
  <g
     inkscape:label="Livello 1"
     inkscape:groupmode="layer"
     id="layer1"
     transform="translate(122.54715,104.84988)">
    <path
       style="fill:#000000;fill-opacity:1;stroke:none;stroke-width:0.35277778"
       d="m 13.629724,288.43248 c -10.2574195,-2.93386 -14.1794195,-9.95284 -8.5732395,-15.34301 0.58859,-0.56589 1.07019,-1.14853 1.07019,-1.29468 0,-0.28266 3.37468,-6.02644 5.7852995,-9.84682 0.79565,-1.26095 2.28412,-3.28498 3.30774,-4.49789 l 1.86108,-2.20524 -1.68471,-0.0556 c -0.92657,-0.0306 -1.92283,-0.0376 -2.21388,-0.0156 -0.29104,0.022 -1.48166,-0.12333 -2.64583,-0.32301 -1.1641695,-0.19965 -2.5729695,-0.43002 -3.1306795,-0.51189 -5.88132,-0.86331 -18.0245605,-5.88983 -25.6991405,-10.63783 -8.050326,-4.98047 -17.503788,-12.20113 -25.287978,-19.31522 -3.568309,-3.2612 -13.200899,-12.9962 -16.589611,-16.76601 -2.005748,-2.23131 -4.384108,-4.85072 -5.285247,-5.82084 -8.424051,-9.06893 -25.120513,-31.85019 -30.638382,-41.80416 -0.48403,-0.8731 -1.718,-3.0956 -2.74217,-4.93886 -2.299096,-4.1378 -6.308776,-12.46238 -9.090846,-18.87363 -5.36516,-12.364 -11.56327,-35.22573 -13.10298,-48.33054 -0.11399,-0.97014 -0.28022,-2.38669 -0.36941,-3.14787 -0.7614,-6.49837 -1.30027,-19.21583 -1.10787,-26.14614 0.42162,-15.18691 1.31366,-21.24146 5.81938,-39.49753 2.01875,-8.17941 6.67017,-21.9863598 8.52572,-25.3070228 0.18825,-0.336921 0.34229,-0.750229 0.34229,-0.918459 0,-0.436192 4.23246,-9.1513612 6.32796,-13.0300812 4.089506,-7.56957 10.388496,-16.657622 16.453857,-23.739271 18.49714,-21.596451 43.832608,-36.632291 73.350107,-43.531091 7.7730905,-1.81671 9.4202005,-2.15101 12.1708305,-2.4702 0.67911,-0.0788 3.34206,-0.40735 5.9177,-0.73012 3.8879195,-0.4872 6.9424795,-0.558 17.9916695,-0.41701 7.31978,0.0934 13.9437,0.27415 14.7198,0.40166 0.77613,0.12751 1.88738,0.29626 2.46946,0.375 13.25719,1.79335 26.40698,5.63072 39.33472,11.47864 2.23133,1.009341 4.21571,1.95792 4.40973,2.107941 0.19402,0.150019 1.8609,1.104559 3.70417,2.121191 6.54804,3.611499 15.123206,9.641229 21.557896,15.158699 3.39926,2.9147 14.63933,14.31308 16.20729,16.435559 0.75764,1.025552 1.53116,1.959603 1.71895,2.075662 0.66304,0.4098 6.73793,8.648099 10.21246,13.849379 7.68959,11.511172 13.1771,22.3235942 18.49303,36.4381342 2.62532,6.9706098 5.91362,19.6877898 6.38529,24.6944498 0.0822,0.87313 0.40638,4.04813 0.72028,7.05555 0.87765,8.40819 0.67894,27.52633 -0.33549,32.27917 -0.0829,0.38806 -0.23522,1.81681 -0.33862,3.175 -0.28395,3.72939 -2.09746,12.77071 -4.81168,23.98889 -1.66058,6.86339 -6.24938,20.36 -9.83536,28.92778 -0.81209,1.94028 -1.79753,4.32153 -2.1899,5.29166 -0.92102,2.27727 -7.9896,16.6607 -8.75514,17.81528 -0.3216,0.48507 -1.39769,2.41197 -2.39128,4.282 -3.40974,6.41746 -8.32922,14.19036 -16.63751,26.28772 -14.34922,20.8932 -33.010276,41.3263 -48.168296,52.74228 -6.99847,5.27079 -12.98884,8.97276 -20.2847,12.53572 -5.26037,2.56895 -12.85431,5.23232 -16.90365,5.92857 -0.66278,0.11393 -1.30477,0.26879 -1.42663,0.34415 -0.59966,0.37057 -5.61084,0.54784 -5.82216,0.20592 -0.13568,-0.21952 0.10504,-0.38526 0.5837,-0.40187 10.42175,-0.36214 24.87173,-6.26028 38.70745,-15.79954 16.78589,-11.57328 35.202376,-31.05701 52.035956,-55.05141 16.8942,-24.08083 27.66721,-44.72168 36.19558,-69.34993 1.3621,-3.93346 4.50009,-14.7628 5.2134,-17.99166 0.21432,-0.97014 0.70837,-3.11327 1.09789,-4.7625 2.88528,-12.2165 4.07125,-23.188 4.04223,-37.39445 -0.0169,-8.27705 -0.1955,-10.80933 -1.43037,-20.28472 -0.5571,-4.27495 1.13284,1.53634 -0.54842,-3.66231 -0.82082,-2.53802 -5.48977,-19.94772 -8.65098,-27.9112998 -1.57112,-3.95794 -6.54934,-14.1088632 -9.08299,-18.5208432 -4.37009,-7.609911 -9.6997,-15.504371 -14.6263,-21.665221 -1.46057,-1.826419 -3.33226,-4.167619 -4.15935,-5.20265 -2.57463,-3.221879 -14.18844,-14.653689 -18.07535,-17.792099 -16.531736,-13.348211 -33.120336,-21.513022 -53.622236,-26.392572 -4.75272,-1.13117 -11.76084,-2.37335 -15.06176,-2.66967 -11.93982,-1.07183 -20.76656,-1.17446 -29.9126195,-0.34781 -7.55121,0.6825 -11.01765,1.24756 -19.4075605,3.16362 -18.350377,4.19078 -34.309048,11.101092 -49.388899,21.386041 -15.432548,10.525501 -28.27369,24.338172 -38.822059,41.759251 -6.892286,11.38292 -14.911916,31.2594632 -17.863136,44.273623 -0.19801,0.87312 -1.05391,4.60375 -1.90203,8.29027 -1.56726,6.81244 -2.08934,9.53929 -2.4316,12.7 -0.10507,0.97014 -0.26856,2.16077 -0.36333,2.64584 -0.77031,3.94254 -0.91903,27.59521 -0.21738,34.57222 0.24392,2.42535 0.51083,5.20347 0.59317,6.17361 0.28178,3.32078 0.57412,5.29738 1.6139,10.91176 1.07882,5.82513 3.16408,15.0736 4.02231,17.83963 0.2709,0.87312 1.12196,3.66941 1.89124,6.21399 0.76927,2.54456 2.20916,6.75144 3.19974,9.34861 1.84832,4.84602 1.91608,5.01456 3.10483,7.72073 0.38351,0.87313 1.43801,3.2923 2.34328,5.37594 7.204866,16.58315 18.671446,33.96707 37.369037,56.65345 3.251478,3.94515 10.777149,12.01381 16.810631,18.02355 19.03626,18.96139 36.609366,30.77914 52.9166665,35.58601 5.45931,1.60922 8.5529495,2.11953 13.1409795,2.16757 1.37737,0.0143 11.2694,-0.30646 11.26808,-0.007 0,0.24251 -10.13315,2.02149 -11.22043,3.37968 -2.6639,3.32764 -3.69755,4.85552 -5.25457,7.76711 -0.7245595,1.3549 -1.5092595,2.70158 -1.7438095,2.99262 -0.23453,0.29104 -0.87644,1.32291 -1.42645,2.29304 -0.55005,0.97014 -1.58084,2.42919 -2.29066,3.24231 -2.46004,2.81807 -2.53479,5.54878 -0.22894,8.36279 3.15645,3.85201 9.8054495,6.21593 17.4542195,6.20556 7.55131,-0.0103 13.80958,-2.33503 16.09455,-5.97866 1.29169,-2.0597 1.33916,-2.91936 0.36364,-6.58566 -2.35783,-8.86161 -6.21588,-15.53811 -11.11123,-19.22854 -0.67807,-0.51118 -2.92034,-1.91148 -2.78966,-2.04841 0.13068,-0.13689 2.92936,1.29871 4.02619,2.1268 4.26794,3.22234 8.4509,10.82382 10.5845,19.23471 1.11085,4.37915 0.70707,6.14492 -1.96821,8.60732 -1.7249,1.58763 -4.50871,3.00281 -7.25604,3.68871 -3.20522,0.80018 -13.63427,0.71361 -16.61131,-0.1379 z m 16.54239,-15.25284 c -0.84204,-0.38663 -1.45273,-0.78123 -1.35711,-0.87683 0.18826,-0.18827 3.06444,1.19148 3.06444,1.47 0,0.2063 0.13877,0.2545 -1.70733,-0.59317 z m 2.41289,-1.70704 c -0.67911,-0.37176 -1.10778,-0.68259 -0.95263,-0.69074 0.37385,-0.0193 2.36373,1.01504 2.36373,1.22899 0,0.2309 -0.0206,0.22301 -1.4111,-0.53825 z"
       id="path5077"
       inkscape:connector-curvature="0"
       sodipodi:nodetypes="ccscccccscccccccccccccsssscsscscssccccsccccccccssccccccssccccccccccsscssscccccccccscccscsccccccccsccccccccccccscccsc" />
    <path
       style="fill:#2656e5;fill-opacity:1;stroke:none;stroke-width:1.83355927;stroke-miterlimit:4;stroke-dasharray:none;stroke-opacity:1"
       d="m 11.448604,253.64133 c -13.1152395,-1.42777 -29.31247,-9.53818 -45.606977,-22.83659 -15.26581,-12.45886 -37.271341,-36.72975 -50.94513,-56.18964 -16.350347,-23.26911 -26.711277,-46.95566 -32.660347,-74.66633 -2.44261,-11.37766 -2.622,-13.33899 -2.9736,-32.51332 -0.41659,-22.71832 0.014,-27.23557 4.23619,-44.42337 7.64601,-31.1267928 19.770136,-53.603703 39.491346,-73.212923 18.448192,-18.343441 37.988301,-29.222862 64.467298,-35.893702 13.6413305,-3.43666 22.80803,-4.32581 39.58034,-3.83923 36.10528,1.04746 64.40963,13.193742 90.318966,38.75873 13.20109,13.025602 26.21843,31.838361 33.6347,48.6089852 4.938,11.16647 10.62496,30.3075998 11.87133,39.9565598 6.33635,49.0535 -14.17529,106.97428 -57.29944,161.80209 -8.457026,10.75224 -29.846216,31.92047 -38.377146,37.98075 -8.85916,6.29344 -23.40235,13.56167 -30.41577,15.20085 -6.05808,1.41591 -18.31914,2.02946 -25.32176,1.26714 z"
       id="path5127"
       inkscape:connector-curvature="0" />
    <path
       style="fill:#2656e5;fill-opacity:1;stroke:none;stroke-width:1.83355927;stroke-miterlimit:4;stroke-dasharray:none;stroke-opacity:1"
       d="M 14.273804,287.30165 C 8.7112245,285.5424 5.7823145,283.60909 4.4513045,280.81793 l -1.28596,-2.69672 5.98832,-9.5767 c 6.1221395,-9.79074 7.8367195,-11.37054 13.8273595,-12.74037 1.94599,-0.44498 2.82742,0.0634 6.5309,3.76684 3.36044,3.36048 4.82978,5.70357 6.83143,10.89406 1.40259,3.63705 2.55016,7.67663 2.55016,8.97681 0,6.63401 -14.18079,11.16119 -24.61971,7.8598 z m 17.35489,-14.20773 c -0.66596,-0.43037 -2.55748,0.3534 -3.22344,0.3534 -1.07627,0 -0.27446,-1.04902 0.80181,-0.3534 0.66596,0.43034 -1.38475,-1.62296 -0.71879,-1.62296 1.07627,0 4.21669,2.31855 3.14042,1.62296 z m 0.8487,-0.37833 c -0.2744,-0.44394 0.30718,-2.0433 -0.13679,-2.0433 -0.44397,0 2.25703,-0.0711 2.53142,0.37288 0.27438,0.44397 -1.97762,1.2415 -1.53365,1.2415 0.44395,0 -0.5866,0.87289 -0.86098,0.42892 z"
       id="path5129"
       inkscape:connector-curvature="0"
       sodipodi:nodetypes="cccccccsccscsccscsc" />
    <path
       style="fill:#71bdf0;fill-opacity:1;stroke:none;stroke-width:0.11459745;stroke-miterlimit:4;stroke-dasharray:none;stroke-opacity:1"
       d="m -117.069,105.07484 c -0.97867,-4.3865 -1.77943,-8.36526 -2.46986,-12.27201 -0.62355,-3.52841 -0.82463,-5.03102 -1.16785,-8.72789 -0.12623,-1.35963 -0.30784,-3.25949 -0.40354,-4.2219 -0.40166,-4.03895 -0.51583,-7.06628 -0.56195,-14.89873 -0.0448,-7.60882 0.084,-14.0689 0.36447,-18.2882 0.0862,-1.29647 0.16422,-2.00678 0.34641,-3.15314 0.0706,-0.44396 0.20852,-1.47693 0.3066,-2.29549 0.3288,-2.74428 0.52824,-3.89568 1.39602,-8.05942 0.0551,-0.26426 0.0556,-0.26486 0.25004,-0.26486 0.10715,0 0.19484,0.0142 0.19484,0.0316 0,0.0174 -0.11293,0.61331 -0.25091,1.32432 -0.94739,4.88148 -1.42759,8.92938 -1.66449,14.03141 -0.20722,4.4624 -0.19288,11.27138 0.0486,23.05575 0.2967,14.48177 0.58168,17.56202 2.45274,26.51159 0.44839,2.14462 1.12064,5.17452 1.51087,6.80955 0.17868,0.74851 0.32483,1.38986 0.32483,1.42522 0,0.0422 -0.0752,0.0643 -0.21881,0.0643 h -0.21878 z"
       id="path5131"
       inkscape:connector-curvature="0" />
    <path
       style="fill:#71bdf0;fill-opacity:1;stroke:none;stroke-width:0.04051632;stroke-miterlimit:4;stroke-dasharray:none;stroke-opacity:1"
       d="m -118.81293,32.93908 c -0.008,-0.0312 -0.0286,-0.0393 -0.12578,-0.0497 -0.1324,-0.0142 -0.21442,-0.001 -0.25675,0.0414 -0.0381,0.0381 -0.0472,0.0851 0.19248,-0.99541 0.27012,-1.21793 1.93302,-8.49429 2.02468,-8.85946 0.0101,-0.0403 0.0151,-0.0411 0.23762,-0.0411 h 0.2273 l -0.14086,0.57524 c -0.86289,3.52336 -1.5366,6.44156 -2.01848,8.74334 -0.0717,0.34271 -0.13483,0.60632 -0.14021,0.5858 z"
       id="path5133"
       inkscape:connector-curvature="0" />
    <ellipse
       style="opacity:0.40500004;fill:url(#radialGradient5187);fill-opacity:1;stroke:none;stroke-width:0.60100001;stroke-miterlimit:4;stroke-dasharray:none;stroke-opacity:1"
       id="path5137"
       cx="112.89591"
       cy="65.195305"
       rx="30.270126"
       ry="47.221397" />
    <ellipse
       style="opacity:0.52899996;fill:url(#radialGradient5187-1);fill-opacity:1;stroke:none;stroke-width:4.08296537;stroke-miterlimit:4;stroke-dasharray:none;stroke-opacity:1;filter:url(#filter5217)"
       id="path5137-4"
       cx="435.52237"
       cy="348.98929"
       rx="287.77396"
       ry="229.24719"
       transform="matrix(0.26458333,0,0,0.26458333,-122.54716,-104.84988)" />
  </g>
</svg>
