<?xml version="1.0" encoding="UTF-8" standalone="no"?>
<!-- Created with Inkscape (http://www.inkscape.org/) -->

<svg
   xmlns:dc="http://purl.org/dc/elements/1.1/"
   xmlns:cc="http://creativecommons.org/ns#"
   xmlns:rdf="http://www.w3.org/1999/02/22-rdf-syntax-ns#"
   xmlns:svg="http://www.w3.org/2000/svg"
   xmlns="http://www.w3.org/2000/svg"
   xmlns:xlink="http://www.w3.org/1999/xlink"
   xmlns:sodipodi="http://sodipodi.sourceforge.net/DTD/sodipodi-0.dtd"
   xmlns:inkscape="http://www.inkscape.org/namespaces/inkscape"
   width="287.42764mm"
   height="393.97357mm"
   viewBox="0 0 287.42764 393.97357"
   version="1.1"
   id="svg8"
   inkscape:version="0.92.3 (2405546, 2018-03-11)"
   sodipodi:docname="balloon0.svg">
  <defs
     id="defs2">
    <radialGradient
       inkscape:collect="always"
       xlink:href="#linearGradient5179"
       id="radialGradient5187-1"
       cx="-1639.8306"
       cy="-77.796608"
       fx="-1639.8306"
       fy="-77.796608"
       r="114.40678"
       gradientTransform="matrix(2.5153574,0,0,2.0037904,4560.2822,504.87741)"
       gradientUnits="userSpaceOnUse" />
    <linearGradient
       inkscape:collect="always"
       id="linearGradient5179">
      <stop
         style="stop-color:#ffffff;stop-opacity:1;"
         offset="0"
         id="stop5175" />
      <stop
         style="stop-color:#ffffff;stop-opacity:0;"
         offset="1"
         id="stop5177" />
    </linearGradient>
    <filter
       inkscape:collect="always"
       style="color-interpolation-filters:sRGB"
       id="filter5217"
       x="-0.20804888"
       width="1.4160978"
       y="-0.26116371"
       height="1.5223274">
      <feGaussianBlur
         inkscape:collect="always"
         stdDeviation="49.892541"
         id="feGaussianBlur5219" />
    </filter>
    <radialGradient
       inkscape:collect="always"
       xlink:href="#linearGradient5179"
       id="radialGradient5187"
       cx="-1639.8306"
       cy="-77.796608"
       fx="-1639.8306"
       fy="-77.796608"
       r="114.40678"
       gradientTransform="matrix(0.26458333,0,0,0.41275002,613.29157,-93.19418)"
       gradientUnits="userSpaceOnUse" />
  </defs>
  <sodipodi:namedview
     id="base"
     pagecolor="#ffffff"
     bordercolor="#666666"
     borderopacity="1.0"
     inkscape:pageopacity="0.0"
     inkscape:pageshadow="2"
     inkscape:zoom="0.35"
     inkscape:cx="133.17035"
     inkscape:cy="495.94555"
     inkscape:document-units="mm"
     inkscape:current-layer="layer1"
     showgrid="false"
     inkscape:window-width="1920"
     inkscape:window-height="1057"
     inkscape:window-x="-8"
     inkscape:window-y="-8"
     inkscape:window-maximized="1" />
  <metadata
     id="metadata5">
    <rdf:RDF>
      <cc:Work
         rdf:about="">
        <dc:format>image/svg+xml</dc:format>
        <dc:type
           rdf:resource="http://purl.org/dc/dcmitype/StillImage" />
        <dc:title></dc:title>
      </cc:Work>
    </rdf:RDF>
  </metadata>
  <g
     inkscape:label="Livello 1"
     inkscape:groupmode="layer"
     id="layer1"
     transform="translate(56.023346,295.34988)">
    <path
       style="fill:#000000;fill-opacity:1;stroke:none;stroke-width:0.35277778"
       d="m 80.153534,97.93248 c -10.25742,-2.93386 -14.17942,-9.95284 -8.57324,-15.34301 0.58859,-0.56589 1.07019,-1.14853 1.07019,-1.29468 0,-0.28266 3.37468,-6.02644 5.7853,-9.84682 0.79565,-1.26095 2.28412,-3.28498 3.30774,-4.49789 l 1.86108,-2.20524 -1.68471,-0.0556 c -0.92657,-0.0306 -1.92283,-0.0376 -2.21388,-0.0156 -0.29104,0.022 -1.48166,-0.12333 -2.64583,-0.32301 -1.16417,-0.19965 -2.57297,-0.43002 -3.13068,-0.51189 C 68.048184,62.97543 55.904944,57.94891 48.230364,53.20091 40.180035,48.22044 30.726573,40.99978 22.942383,33.88569 19.374075,30.62449 9.741485,20.88949 6.35277,17.11968 4.347022,14.88837 1.968664,12.26896 1.067525,11.29884 -7.356528,2.2299102 -24.052988,-20.55135 -29.570858,-30.50532 c -0.48403,-0.8731 -1.718,-3.0956 -2.74217,-4.93886 -2.299096,-4.1378 -6.308776,-12.46238 -9.090846,-18.87363 -5.36516,-12.364 -11.56327,-35.22573 -13.10298,-48.33054 -0.11399,-0.97014 -0.28022,-2.38669 -0.36941,-3.14787 -0.7614,-6.49837 -1.30027,-19.21583 -1.10787,-26.14614 0.42162,-15.18691 1.31366,-21.24146 5.81938,-39.49753 2.01875,-8.17941 6.67017,-21.98636 8.52572,-25.30702 0.18825,-0.33692 0.34229,-0.75023 0.34229,-0.91846 0,-0.43619 4.23246,-9.15136 6.32796,-13.03008 4.089506,-7.56957 10.388495,-16.65762 16.453856,-23.73927 18.49714302,-21.59646 43.832611,-36.6323 73.350112,-43.5311 7.77309,-1.81671 9.4202,-2.15101 12.17083,-2.4702 0.67911,-0.0788 3.34206,-0.40735 5.9177,-0.73012 3.88792,-0.4872 6.94248,-0.558 17.99167,-0.41701 7.31978,0.0934 13.943696,0.27415 14.719796,0.40166 0.77613,0.12751 1.88738,0.29626 2.46946,0.375 13.25719,1.79335 26.40698,5.63072 39.33472,11.47864 2.23133,1.00935 4.21571,1.95793 4.40973,2.10794 0.19402,0.15003 1.8609,1.10457 3.70417,2.1212 6.54804,3.61149 15.12321,9.64123 21.55789,15.1587 3.39926,2.91469 14.63934,14.31308 16.20729,16.43555 0.75765,1.02556 1.53117,1.95961 1.71895,2.07567 0.66304,0.4098 6.73794,8.6481 10.21247,13.84938 7.68959,11.51117 13.1771,22.32359 18.49303,36.43813 2.62532,6.97061 5.91362,19.68779 6.38529,24.69445 0.0822,0.87313 0.40638,4.04813 0.72028,7.05555 0.87765,8.40819 0.67894,27.52633 -0.33549,32.27917 -0.0829,0.38806 -0.23522,1.81681 -0.33862,3.175 -0.28395,3.72939 -2.09746,12.77071 -4.81168,23.98889 -1.66058,6.86339 -6.24938,20.36 -9.83536,28.92778 -0.81209,1.94028 -1.79753,4.32153 -2.1899,5.29166 -0.92102,2.27727 -7.98961,16.6607 -8.75515,17.81528 -0.32159,0.48507 -1.39769,2.41197 -2.39128,4.282 -3.40973,6.41746 -8.32921,14.19036 -16.6375,26.2877202 C 171.20425,13.54942 152.5432,33.98252 137.38518,45.3985 c -6.99847,5.27079 -12.98884,8.97276 -20.2847,12.53572 -5.26037,2.56895 -12.85431,5.23232 -16.90365,5.92857 -0.662776,0.11393 -1.304766,0.26879 -1.426626,0.34415 -0.59966,0.37057 -5.61084,0.54784 -5.82216,0.20592 -0.13568,-0.21952 0.10504,-0.38526 0.5837,-0.40187 10.421746,-0.36214 24.871726,-6.26028 38.707446,-15.79954 16.78589,-11.57328 35.20237,-31.05701 52.03595,-55.0514098 16.89421,-24.0808302 27.66722,-44.7216802 36.19559,-69.3499302 1.3621,-3.93346 4.50009,-14.7628 5.2134,-17.99166 0.21432,-0.97014 0.70837,-3.11327 1.09789,-4.7625 2.88528,-12.2165 4.07125,-23.188 4.04223,-37.39445 -0.0169,-8.27705 -0.1955,-10.80933 -1.43037,-20.28472 -0.5571,-4.27495 1.13284,1.53634 -0.54842,-3.66231 -0.82082,-2.53802 -5.48977,-19.94772 -8.65098,-27.9113 -1.57112,-3.95794 -6.54934,-14.10886 -9.08299,-18.52084 -4.3701,-7.60991 -9.6997,-15.50437 -14.6263,-21.66522 -1.46058,-1.82642 -3.33226,-4.16762 -4.15935,-5.20265 -2.57464,-3.22188 -14.18844,-14.65369 -18.07536,-17.7921 -16.53173,-13.34821 -33.12033,-21.51303 -53.62223,-26.39258 -4.75272,-1.13117 -11.76084,-2.37335 -15.06176,-2.66967 -11.939816,-1.07183 -20.766556,-1.17446 -29.912616,-0.34781 -7.55121,0.6825 -11.01765,1.24756 -19.40756,3.16362 -18.350379,4.19078 -34.309051,11.1011 -49.388901,21.38605 -15.432551,10.5255 -28.273693,24.33817 -38.822061,41.75925 -6.892286,11.38292 -14.911916,31.25946 -17.863136,44.27362 -0.19801,0.87312 -1.05391,4.60375 -1.90203,8.29027 -1.56726,6.81244 -2.08934,9.53929 -2.4316,12.7 -0.10507,0.97014 -0.26856,2.16077 -0.36333,2.64584 -0.77031,3.94254 -0.91903,27.59521 -0.21738,34.57222 0.24392,2.42535 0.51083,5.20347 0.59317,6.17361 0.28178,3.32078 0.57412,5.29738 1.6139,10.91176 1.07882,5.82513 3.16408,15.0736 4.02231,17.83963 0.2709,0.87312 1.12196,3.66941 1.89124,6.21399 0.76927,2.54456 2.20916,6.75144 3.19974,9.34861 1.84832,4.84602 1.91608,5.01456 3.10483,7.72073 0.38351,0.87313 1.43801,3.2923 2.34328,5.37594 7.204866,16.58315 18.671445,33.96707 37.36903602,56.6534502 C 2.646863,12.18604 10.172533,20.2547 16.206015,26.26444 c 19.03626,18.96139 36.609369,30.77914 52.916669,35.58601 5.45931,1.60922 8.55295,2.11953 13.14098,2.16757 1.37737,0.0143 11.2694,-0.30646 11.26808,-0.007 0,0.24251 -10.13315,2.02149 -11.22043,3.37968 -2.6639,3.32764 -3.69755,4.85552 -5.25457,7.76711 -0.72456,1.3549 -1.50926,2.70158 -1.74381,2.99262 -0.23453,0.29104 -0.87644,1.32291 -1.42645,2.29304 -0.55005,0.97014 -1.58084,2.42919 -2.29066,3.24231 -2.46004,2.81807 -2.53479,5.54878 -0.22894,8.36279 3.15645,3.85201 9.80545,6.21593 17.45422,6.20556 7.55131,-0.0103 13.809576,-2.33503 16.094546,-5.97866 1.29169,-2.0597 1.33916,-2.91936 0.36364,-6.58566 -2.35783,-8.86161 -6.215876,-15.53811 -11.111226,-19.22854 -0.67807,-0.51118 -2.92034,-1.91148 -2.78966,-2.04841 0.13068,-0.13689 2.92936,1.29871 4.02619,2.1268 4.26794,3.22234 8.450896,10.82382 10.584496,19.23471 1.11085,4.37915 0.70707,6.14492 -1.96821,8.60732 -1.7249,1.58763 -4.508706,3.00281 -7.256036,3.68871 -3.20522,0.80018 -13.63427,0.71361 -16.61131,-0.1379 z m 16.54239,-15.25284 c -0.84204,-0.38663 -1.45273,-0.78123 -1.35711,-0.87683 0.18826,-0.18827 3.06444,1.19148 3.06444,1.47 0,0.2063 0.13877,0.2545 -1.70733,-0.59317 z m 2.41289,-1.70704 c -0.67911,-0.37176 -1.10778,-0.68259 -0.95263,-0.69074 0.37385,-0.0193 2.363726,1.01504 2.363726,1.22899 0,0.2309 -0.0206,0.22301 -1.411096,-0.53825 z"
       id="path5077"
       inkscape:connector-curvature="0"
       sodipodi:nodetypes="ccscccccscccccccccccccsssscsscscssccccsccccccccssccccccssccccccccccsscssscccccccccscccscsccccccccsccccccccccccscccsc" />
    <path
       style="fill:#000000;fill-opacity:1;stroke:none;stroke-width:1.83355927;stroke-miterlimit:4;stroke-dasharray:none;stroke-opacity:1"
       d="M 77.972414,63.14133 C 64.857174,61.71356 48.659944,53.60315 32.365434,40.30474 17.099624,27.84588 -4.905907,3.5749902 -18.579698,-15.8849 c -16.350346,-23.26911 -26.711276,-46.95566 -32.660346,-74.66633 -2.44261,-11.37766 -2.622,-13.33899 -2.9736,-32.51332 -0.41659,-22.71832 0.014,-27.23557 4.23619,-44.42337 7.64601,-31.12679 19.770136,-53.6037 39.491347,-73.21292 18.448192,-18.34344 37.988301,-29.22287 64.467301,-35.89371 13.64133,-3.43666 22.80803,-4.32581 39.58034,-3.83923 36.105276,1.04746 64.409626,13.19375 90.318956,38.75873 13.2011,13.02561 26.21844,31.83837 33.63471,48.60899 4.938,11.16647 10.62496,30.3076 11.87133,39.95656 6.33635,49.0535 -14.17529,106.97428 -57.29945,161.8020902 C 163.63006,19.44483 142.24087,40.61306 133.70994,46.67334 c -8.85916,6.29344 -23.40235,13.56167 -30.41577,15.20085 -6.058076,1.41591 -18.319136,2.02946 -25.321756,1.26714 z"
       id="path5127"
       inkscape:connector-curvature="0" />
    <path
       style="fill:#000000;fill-opacity:1;stroke:none;stroke-width:1.83355927;stroke-miterlimit:4;stroke-dasharray:none;stroke-opacity:1"
       d="m 80.797614,96.80165 c -5.56258,-1.75925 -8.49149,-3.69256 -9.8225,-6.48372 l -1.28596,-2.69672 5.98832,-9.5767 c 6.12214,-9.79074 7.83672,-11.37054 13.82736,-12.74037 1.94599,-0.44498 2.82742,0.0634 6.5309,3.76684 3.36044,3.36048 4.829776,5.70357 6.831426,10.89406 1.40259,3.63705 2.55016,7.67663 2.55016,8.97681 0,6.63401 -14.180786,11.16119 -24.619706,7.8598 z m 17.35489,-14.20773 c -0.66596,-0.43037 -2.55748,0.3534 -3.22344,0.3534 -1.07627,0 -0.27446,-1.04902 0.80181,-0.3534 0.66596,0.43034 -1.38475,-1.62296 -0.71879,-1.62296 1.07627,0 4.21669,2.31855 3.14042,1.62296 z m 0.8487,-0.37833 c -0.2744,-0.44394 0.30718,-2.0433 -0.13679,-2.0433 -0.44397,0 2.257026,-0.0711 2.531416,0.37288 0.27438,0.44397 -1.977616,1.2415 -1.533646,1.2415 0.443946,0 -0.5866,0.87289 -0.86098,0.42892 z"
       id="path5129"
       inkscape:connector-curvature="0"
       sodipodi:nodetypes="cccccccsccscsccscsc" />
    <path
       style="fill:#71bdf0;fill-opacity:1;stroke:none;stroke-width:0.11459745;stroke-miterlimit:4;stroke-dasharray:none;stroke-opacity:1"
       d="m -50.545194,-85.42516 c -0.97867,-4.3865 -1.77943,-8.36526 -2.46986,-12.27201 -0.62355,-3.52841 -0.82463,-5.03102 -1.16785,-8.72789 -0.12623,-1.35963 -0.30784,-3.25949 -0.40354,-4.2219 -0.40166,-4.03895 -0.51583,-7.06628 -0.56195,-14.89873 -0.0448,-7.60882 0.084,-14.0689 0.36447,-18.2882 0.0862,-1.29647 0.16422,-2.00678 0.34641,-3.15314 0.0706,-0.44396 0.20852,-1.47693 0.3066,-2.29549 0.3288,-2.74428 0.52824,-3.89568 1.39602,-8.05942 0.0551,-0.26426 0.0556,-0.26486 0.25004,-0.26486 0.10715,0 0.19484,0.0142 0.19484,0.0316 0,0.0174 -0.11293,0.61331 -0.25091,1.32432 -0.94739,4.88148 -1.42759,8.92938 -1.66449,14.03141 -0.20722,4.4624 -0.19288,11.27138 0.0486,23.05575 0.2967,14.48177 0.58168,17.56202 2.45274,26.51159 0.44839,2.14462 1.12064,5.17452 1.51087,6.80955 0.17868,0.74851 0.32483,1.38986 0.32483,1.42522 0,0.0422 -0.0752,0.0643 -0.21881,0.0643 h -0.21878 z"
       id="path5131"
       inkscape:connector-curvature="0" />
    <path
       style="fill:#71bdf0;fill-opacity:1;stroke:none;stroke-width:0.04051632;stroke-miterlimit:4;stroke-dasharray:none;stroke-opacity:1"
       d="m -52.289124,-157.56092 c -0.008,-0.0312 -0.0286,-0.0393 -0.12578,-0.0497 -0.1324,-0.0142 -0.21442,-10e-4 -0.25675,0.0414 -0.0381,0.0381 -0.0472,0.0851 0.19248,-0.99541 0.27012,-1.21793 1.93302,-8.49429 2.02468,-8.85946 0.0101,-0.0403 0.0151,-0.0411 0.23762,-0.0411 h 0.2273 l -0.14086,0.57524 c -0.86289,3.52336 -1.5366,6.44156 -2.01848,8.74334 -0.0717,0.34271 -0.13483,0.60632 -0.14021,0.5858 z"
       id="path5133"
       inkscape:connector-curvature="0" />
    <ellipse
       style="opacity:0.40500004;fill:url(#radialGradient5187);fill-opacity:1;stroke:none;stroke-width:0.60100001;stroke-miterlimit:4;stroke-dasharray:none;stroke-opacity:1"
       id="path5137"
       cx="179.41972"
       cy="-125.30468"
       rx="30.270126"
       ry="47.221397" />
    <ellipse
       style="opacity:0.52899996;fill:url(#radialGradient5187-1);fill-opacity:1;stroke:none;stroke-width:4.08296537;stroke-miterlimit:4;stroke-dasharray:none;stroke-opacity:1;filter:url(#filter5217)"
       id="path5137-4"
       cx="435.52234"
       cy="348.98929"
       rx="287.77396"
       ry="229.24719"
       transform="matrix(0.26458333,0,0,0.26458333,-56.023346,-295.34988)" />
  </g>
</svg>
