<?xml version="1.0" encoding="UTF-8" standalone="no"?>
<!-- Created with Inkscape (http://www.inkscape.org/) -->

<svg
   xmlns:dc="http://purl.org/dc/elements/1.1/"
   xmlns:cc="http://creativecommons.org/ns#"
   xmlns:rdf="http://www.w3.org/1999/02/22-rdf-syntax-ns#"
   xmlns:svg="http://www.w3.org/2000/svg"
   xmlns="http://www.w3.org/2000/svg"
   xmlns:sodipodi="http://sodipodi.sourceforge.net/DTD/sodipodi-0.dtd"
   xmlns:inkscape="http://www.inkscape.org/namespaces/inkscape"
   version="1.1"
   id="svg815"
   width="626"
   height="626.06805"
   viewBox="0 0 626 626.06805"
   sodipodi:docname="bomba.svg"
   inkscape:version="0.92.3 (2405546, 2018-03-11)">
  <metadata
     id="metadata821">
    <rdf:RDF>
      <cc:Work
         rdf:about="">
        <dc:format>image/svg+xml</dc:format>
        <dc:type
           rdf:resource="http://purl.org/dc/dcmitype/StillImage" />
        <dc:title></dc:title>
      </cc:Work>
    </rdf:RDF>
  </metadata>
  <defs
     id="defs819" />
  <sodipodi:namedview
     pagecolor="#ffffff"
     bordercolor="#666666"
     borderopacity="1"
     objecttolerance="10"
     gridtolerance="10"
     guidetolerance="10"
     inkscape:pageopacity="0"
     inkscape:pageshadow="2"
     inkscape:window-width="1920"
     inkscape:window-height="1057"
     id="namedview817"
     showgrid="false"
     inkscape:zoom="0.25076311"
     inkscape:cx="-314.1434"
     inkscape:cy="36.151212"
     inkscape:window-x="-8"
     inkscape:window-y="-8"
     inkscape:window-maximized="1"
     inkscape:current-layer="svg815" />
  <g
     id="g825">
    <path
       style="fill:#fdfdfd"
       d="M 0,313 V 0 H 313 626 V 313 626 H 313 0 Z"
       id="path841"
       inkscape:connector-curvature="0" />
    <path
       style="fill:#d0d0d0"
       d="m 264.5,624.86943 c -16.04346,-1.96878 -21.28948,-3.10486 -34.0989,-7.38444 C 172.50725,598.14283 128.06893,553.45174 108.60888,495 97.117768,460.48441 96.004603,420.7745 105.53596,385.3798 c 6.40902,-23.79992 17.77506,-46.95752 32.82545,-66.8798 7.73967,-10.24505 25.76782,-28.2275 36.4501,-36.3577 C 208.12163,256.79021 249.2452,243 291.53709,243 c 30.34864,0 56.26545,6.03984 84.80812,19.76428 l 11.8452,5.69564 3.54999,-3.97996 C 404.99593,249.61893 411.27026,243 412.10205,243 c 0.52697,0 5.25591,3.8816 10.50875,8.62579 9.22709,8.33359 9.63731,8.57938 12.11004,7.25602 3.77059,-2.01796 21.98033,-21.47655 26.32216,-28.12737 7.76496,-11.89439 11.50349,-28.18502 9.77971,-42.61515 C 469.22824,174.79156 463.59392,160.2315 447.74404,128.5 434.76181,102.50954 429.92218,88.277492 429.6231,75.211155 c -0.10825,-4.729046 0.21536,-5.66928 2.68266,-7.794456 6.66565,-5.741347 14.86143,-1.361687 16.1595,8.635309 2.11815,16.312727 5.64036,25.444182 22.73761,58.947992 6.92352,13.56734 13.89299,28.7392 15.61852,34 11.33244,34.5504 2.33551,62.46239 -31.17575,96.71929 -4.42221,4.52061 -7.83907,8.35995 -7.59301,8.53185 3.91051,2.7321 22.94737,21.37708 22.94737,22.475 0,0.82679 -4.95,7.10497 -11,13.9515 -6.05,6.84653 -11,12.856 -11,13.35437 0,0.49838 2.21741,4.30287 4.92758,8.45443 5.46798,8.37611 13.60893,24.57653 17.3521,34.53051 14.13851,37.59776 16.04427,81.46716 5.21358,120.01311 C 455.66397,561.16055 391.11091,617.16162 317.5,624.9599 c -11.53976,1.22251 -42.73453,1.16927 -53,-0.0905 z M 392.18325,98.286992 c 0.32483,-1.686708 5.31449,-5.826571 15.496,-12.856847 4.35307,-3.005772 5.50957,-3.399461 7.25,-2.46801 1.2529,0.670531 2.07075,2.103003 2.07075,3.626928 0,2.220148 -1.33349,3.163147 -11.25,7.955633 -12.11143,5.853254 -14.07774,6.395644 -13.56675,3.742296 z M 457.25,65.380955 C 456.5625,65.079763 456,63.348317 456,61.533298 c 0,-2.576932 0.49302,-3.432159 2.25,-3.903012 2.98704,-0.800495 55.62562,-0.805162 59.625,-0.0053 3.65668,0.731336 4.07906,2.113611 0.875,2.863475 -1.2375,0.289619 -13.05,1.420531 -26.25,2.513139 -13.2,1.092608 -26.25,2.198151 -29,2.456761 -2.75,0.258611 -5.5625,0.223772 -6.25,-0.07742 z M 415.82424,52.25 c -9.12936,-10.904644 -11.16288,-13.893057 -10.34941,-15.209269 0.93554,-1.513743 3.77379,0.349968 14.2726,9.371962 4.53609,3.898019 8.24859,7.805063 8.25,8.682319 0.003,1.726556 -3.02332,4.904988 -4.6699,4.904988 -0.55825,0 -3.93473,-3.4875 -7.50329,-7.75 z m 31.90544,0.0038 C 445.74558,50.06139 445.77959,49.982852 454.98428,35.5 468.09449,14.872126 473.78796,6.4445058 475.86285,4.5950124 477.96712,2.7193371 478,2.7203239 478,4.6591414 478,6.4721407 466.42579,29.871529 457.30394,46.5 c -4.11939,7.509368 -6.62356,9.014281 -9.57426,5.75379 z"
       id="path839"
       inkscape:connector-curvature="0" />
    <path
       style="fill:#afafaf"
       d="M 263.48688,624.45372 C 232.99682,620.52512 201.92419,607.53632 175.5,587.67396 165.11332,579.86657 146.0033,560.694 138.33645,550.38877 112.87455,516.16471 100.0265,477.5803 100.00701,435.28027 c -0.02376,-51.58003 19.52771,-98.77055 56.05528,-135.29812 36.61524,-36.61524 83.33524,-56.02409 134.89373,-56.03881 31.29032,-0.009 59.04026,6.44131 86.19447,20.03518 5.51681,2.76182 10.40116,5.02148 10.8541,5.02148 0.45294,0 5.85088,-5.625 11.99541,-12.5 6.14453,-6.875 11.58394,-12.5 12.08758,-12.5 0.50363,0 5.15078,3.825 10.32699,8.5 5.17621,4.675 10.07754,8.5 10.89184,8.5 2.20911,0 25.68523,-24.88114 29.51438,-31.28077 5.57283,-9.31385 8.41823,-18.9275 8.94991,-30.2387 C 472.62134,181.38352 469.29738,170.84608 450.95761,133.5 445.01559,121.4 438.7339,107.91166 436.99829,103.5259 433.69594,95.181104 430.04246,79.839443 430.01567,74.204545 429.99457,69.76694 433.76694,66 438.23204,66 c 6.44577,0 8.88859,3.558597 10.23719,14.913115 1.26395,10.641793 6.62499,24.077875 20.87732,52.323675 19.51096,38.66755 23.37129,51.64507 20.88657,70.21569 -2.85451,21.33437 -12.21083,37.62695 -35.61218,62.01309 -4.20414,4.38107 -7.52623,8.31029 -7.38242,8.7316 0.14382,0.42131 5.20889,5.18038 11.25573,10.5757 6.04684,5.39533 11.14335,10.58384 11.32556,11.53002 0.20469,1.06282 -3.90176,6.45664 -10.74425,14.11257 C 452.984,317.23119 448,323.28704 448,323.87292 c 0,0.58587 2.24194,4.49953 4.98208,8.69701 21.35948,32.71944 32.22844,76.06826 29.14043,116.22123 -1.41521,18.40187 -3.96299,30.99881 -9.72797,48.09789 -9.51832,28.23157 -24.63418,52.51778 -45.83167,73.63637 -24.90435,24.81166 -54.81514,41.85802 -88.56926,50.47621 -18.50514,4.72478 -52.4302,6.29662 -74.50673,3.45209 z M 395,97.06695 c 0,-1.007705 5.66634,-5.743127 13.21959,-11.047756 3.93467,-2.763309 4.97412,-3.103321 6.25,-2.044431 3.32767,2.761716 1.72363,4.587141 -8.21959,9.354079 -10.24818,4.91314 -11.25,5.24602 -11.25,3.738108 z m 62.38404,-33.508537 c -0.30425,-0.792872 -0.39671,-2.255372 -0.20546,-3.25 0.32172,-1.673116 2.1049,-1.83065 23.83458,-2.105645 12.91776,-0.163478 25.51184,0.01277 27.98684,0.39166 4.42956,0.67811 4.45304,0.701675 1.5,1.505494 C 508.12527,60.746325 463.43688,65 459.02061,65 c -0.59586,0 -1.33231,-0.648714 -1.63657,-1.441587 z M 420.09228,55.75 C 409.41467,44.011308 404.5208,35.749239 410.88609,40.207662 c 5.75668,4.032137 15.99871,13.50226 16.05212,14.842338 0.0645,1.617055 -1.7747,3.95 -3.11396,3.95 -0.42666,0 -2.10605,-1.4625 -3.73197,-3.25 z m 27.90985,-4.247434 c -1.03397,-1.245852 0.58354,-4.362963 9.62756,-18.553308 11.10638,-17.426282 16.20686,-24.4460371 17.1077,-23.5452063 0.50368,0.5036826 -8.89577,19.5575173 -17.43652,35.3459483 -4.5581,8.426105 -6.64943,9.944789 -9.29874,6.752566 z"
       id="path837"
       inkscape:connector-curvature="0" />
    <path
       style="fill:#8f8f8f"
       d="M 266,624.40778 C 195.93172,615.15534 136.51336,567.56531 112.03917,501.09573 103.98573,479.22334 100.76885,460.53652 100.74704,435.5 c -0.046,-52.7962 18.48348,-97.7326 55.70395,-135.08951 29.40722,-29.515 64.92776,-47.62382 105.99505,-54.0376 12.53485,-1.95766 43.83397,-2.25982 55.55396,-0.53632 20.01948,2.944 41.427,9.78066 60.25388,19.24255 l 10.18166,5.11704 2.92402,-3.34808 C 401.00399,255.80495 411.30195,245 412.18248,245 c 0.56283,0 5.34824,3.825 10.63425,8.5 5.286,4.675 9.907,8.5 10.26888,8.5 1.60622,0 24.80486,-24.10176 28.34681,-29.45036 8.79349,-13.27878 12.6716,-29.66463 10.63786,-44.94723 C 470.1725,173.34141 466.94765,164.97914 450.04917,130.5 435.51987,100.85485 431,87.687872 431,75.007204 c 0,-4.061474 0.43385,-5.203309 2.63486,-6.934624 6.07113,-4.775554 12.57461,-0.455879 13.69748,9.098008 1.76454,15.013526 5.66236,25.061202 22.56323,58.162812 16.13132,31.59438 19.21919,40.48836 19.86652,57.22136 0.39121,10.11248 0.13032,13.27959 -1.6192,19.65666 -5.11808,18.65555 -15.86297,35.36819 -34.56316,53.75969 -3.61885,3.55911 -6.57973,6.99104 -6.57973,7.6265 0,0.63546 5.175,5.98187 11.5,11.88092 6.325,5.89904 11.5,11.03316 11.5,11.40916 0,0.376 -5.1854,6.50346 -11.5231,13.61658 -6.33771,7.11312 -11.33493,13.42332 -11.10494,14.02266 0.22999,0.59935 2.68813,4.56695 5.46252,8.8169 18.74885,28.72036 29.24926,65.09684 29.27314,101.41068 0.0332,50.54224 -18.23685,96.1085 -53.19849,132.67901 C 387.03214,611.23762 326.52242,632.3997 266,624.40778 Z M 397.23248,95.757939 c 0.22245,-0.691867 3.52364,-3.621153 7.33598,-6.509525 6.98425,-5.291521 10.61997,-6.276346 11.23596,-3.043535 0.23653,1.241351 -1.62274,2.685669 -6.83849,5.312277 -9.82336,4.946965 -12.24149,5.820942 -11.73345,4.240783 z M 457.38,62.547887 c -1.25965,-3.282612 0.64003,-3.548144 24.92902,-3.484501 14.4974,0.03799 23.34017,0.406998 22.06772,0.920893 C 502.351,60.802399 467.94802,64 461.17161,64 459.2665,64 457.70822,63.403207 457.38,62.547887 Z M 415.54639,49.758003 c -3.62692,-4.533098 -6.13247,-8.395977 -5.56787,-8.584177 C 411.05868,40.813775 427,53.656067 427,54.886289 427,56.03366 424.70787,58 423.3704,58 c -0.67628,0 -4.19708,-3.708898 -7.82401,-8.241997 z M 449.2,51.8 C 448.54,51.14 448,50.207392 448,49.727539 448,48.473336 468.76728,16.438033 470.52717,14.977454 471.33723,14.305165 472,14.079844 472,14.476741 472,15.370774 456.7469,45.291772 454.01842,49.75 451.85645,53.282588 451.03295,53.632948 449.2,51.8 Z"
       id="path835"
       inkscape:connector-curvature="0" />
    <path
       style="fill:#6e6e6e"
       d="m 276.5,625.41369 c -1.65,-0.23472 -6.6,-0.89705 -11,-1.47187 C 209.81497,616.6672 159.04899,583.5457 128.77883,534.74016 115.89428,513.96599 106.98436,489.42789 102.91112,463.5 c -2.35511,-14.99127 -2.52803,-39.44855 -0.38444,-54.37166 13.5964,-94.65424 93.27054,-164.18145 188.23736,-164.26431 31.26427,-0.0273 58.44079,6.26153 85.62532,19.81418 5.98914,2.98585 11.45608,5.21134 12.14875,4.94554 0.69267,-0.2658 5.84171,-5.57738 11.44233,-11.80351 5.60061,-6.22613 10.77329,-11.6533 11.49484,-12.06038 0.85687,-0.48343 4.55712,2.19327 10.66831,7.71727 5.14603,4.65158 10.08699,8.47214 10.97992,8.49014 2.33643,0.0471 26.75927,-25.57696 30.69728,-32.20709 11.15489,-18.7807 12.06045,-41.13791 2.63228,-64.98853 -2.0158,-5.09941 -8.82106,-19.78122 -15.1228,-32.62625 -6.30174,-12.84503 -12.75532,-26.8739 -14.34129,-31.17528 C 434.06804,93.048088 431,79.175242 431,73.889532 c 0,-6.406537 8.35526,-9.33363 12.88355,-4.513487 1.55943,1.659941 2.52102,4.447753 3.19056,9.25 1.87706,13.463197 6.50046,25.335505 21.2314,54.519585 18.69166,37.03082 22.51356,49.02924 21.31596,66.91895 -1.35825,20.28957 -11.5851,39.6603 -32.08347,60.76942 -6.3459,6.53498 -11.538,12.36665 -11.538,12.95926 0,0.59261 5.175,5.67427 11.5,11.29257 6.325,5.6183 11.5,10.85598 11.5,11.63929 0,0.7833 -4.94503,6.90309 -10.98895,13.59953 -6.04392,6.69644 -10.99392,12.73837 -11,13.42649 -0.006,0.68813 2.25976,4.73813 5.03519,9 2.77543,4.26188 7.46304,12.69886 10.41692,18.74886 35.61034,72.93542 21.07141,160.73466 -36.08045,217.88652 -29.36009,29.36009 -64.04777,47.16619 -105.38271,54.09571 -9.17429,1.53801 -38.36055,2.80479 -44.5,1.93146 z M 399.42449,94.122183 c 1.33681,-2.163016 13.55557,-10.252539 14.55391,-9.635531 2.32967,1.439811 0.68687,3.652448 -4.7284,6.368541 -7.10788,3.565044 -10.76028,4.779469 -9.82551,3.26699 z M 457.68513,62.621855 C 456.479,59.478728 459.28313,59 478.9,59 c 11.84873,0 19.12725,0.359843 18.55,0.917095 -0.5225,0.504403 -8.90289,1.629403 -18.62308,2.5 -21.36317,1.913411 -20.48936,1.904948 -21.14179,0.20476 z M 417.52199,51.305429 c -8.35044,-10.123628 -6.91088,-10.771978 3.40563,-1.533828 3.89995,3.492299 5.24573,5.334282 4.78138,6.544342 -1.07539,2.802424 -2.42264,1.977896 -8.18701,-5.010514 z m 31.1687,-0.669094 C 448.21895,49.406992 467.19334,19 468.43221,19 c 0.94248,0 -1.47137,5.333548 -8.71215,19.25 -4.86554,9.351344 -7.69031,13.75 -8.83013,13.75 -0.92177,0 -1.91143,-0.613649 -2.19924,-1.363665 z"
       id="path833"
       inkscape:connector-curvature="0" />
    <path
       style="fill:#4f4f4f"
       d="m 277.5,625.34423 c -2.75,-0.2403 -11.21365,-1.55398 -18.80812,-2.9193 -81.21923,-14.60144 -142.6636,-77.40647 -155.33998,-158.77989 -2.28671,-14.6791 -2.25788,-43.03519 0.0586,-57.64504 8.79895,-55.49386 40.8836,-103.47274 89.12264,-133.27259 54.83785,-33.87629 125.71381,-36.70962 184.27708,-7.36664 6.19018,3.10158 11.4066,5.63923 11.59204,5.63923 0.18544,0 5.36889,-5.625 11.51878,-12.5 6.14989,-6.875 11.66451,-12.5 12.25472,-12.5 0.5902,0 5.30011,3.825 10.46646,8.5 5.16634,4.675 9.94785,8.50129 10.62556,8.50287 1.75538,0.004 22.52081,-21.35169 28.0042,-28.80036 9.1096,-12.37451 13.6475,-30.37844 11.65706,-46.24888 -1.78924,-14.26617 -5.51279,-24.01185 -22.10068,-57.84429 -13.698,-27.93828 -17.99123,-40.213887 -18.18723,-52.002663 -0.13679,-8.22738 -0.0584,-8.536513 2.54078,-10.015031 3.4166,-1.943529 7.74576,-0.608388 9.47307,2.921556 0.66927,1.367739 1.91085,6.311798 2.75907,10.986798 2.5744,14.189062 5.42717,21.34686 20.127,50.5 18.28082,36.25508 20.55365,42.71463 21.20142,60.25595 0.45699,12.37519 0.30839,13.83692 -2.23655,22 -2.98177,9.56427 -5.65527,15.29491 -11.20939,24.02733 -4.32058,6.793 -15.8883,20.54705 -23.70267,28.18256 -3.07663,3.00621 -5.59256,6.15621 -5.59095,7 0.002,0.84379 3.71411,4.76667 8.25,8.71752 4.53589,3.95084 9.7796,8.76952 11.6527,10.70817 l 3.40563,3.52482 -10.40563,11.80041 c -5.7231,6.49023 -11.01819,12.57798 -11.76688,13.52834 -1.19662,1.51895 -0.6853,2.7714 4.22789,10.35603 19.66954,30.36441 29.86372,65.57011 29.79545,102.89887 -0.13062,71.41953 -38.72248,134.99173 -102.24976,168.43557 -17.16297,9.03543 -35.82868,15.09431 -59.97315,19.46725 -8.82607,1.59855 -32.61061,2.71284 -41.43918,1.94141 z M 402,92.585169 c 0,-1.264142 10.26809,-7.696272 11.51952,-7.216052 2.57848,0.989457 1.63516,2.138387 -4.04167,4.922565 C 404.27786,92.841995 402,93.540624 402,92.585169 Z M 459.08664,63.195546 C 458.48899,62.996329 458,62.2444 458,61.524593 c 0,-0.982354 2.90881,-1.401079 11.66369,-1.678996 10.62897,-0.337409 26.31824,0.56255 18.83631,1.080479 -1.65,0.114219 -8.69851,0.753074 -15.66336,1.419677 -6.96485,0.666603 -13.15235,1.04901 -13.75,0.849793 z M 418.48028,51.980229 c -4.71063,-5.940856 -5.57187,-7.85822 -2.59238,-5.771298 4.49268,3.146796 10.1323,8.949372 9.57478,9.851451 -1.18981,1.925161 -3.11069,0.802699 -6.9824,-4.080153 z m 30.94453,-1.315566 c -0.5832,-1.519803 15.37521,-27.197977 16.31739,-26.255795 0.71791,0.717905 -13.26288,26.931357 -14.60169,27.377628 -0.6267,0.208901 -1.39877,-0.295924 -1.7157,-1.121833 z"
       id="path831"
       inkscape:connector-curvature="0" />
    <path
       style="fill:#2e2e2e"
       d="M 278,624.95626 C 229.44645,619.91152 189.46337,601.36581 156.8681,568.77054 121.10327,533.00571 102,486.4312 102,435 102,381.97375 122.44423,334.40634 161.12178,297.44188 196.14802,263.967 241.66465,245.88532 291,245.84719 c 31.27222,-0.0242 58.20358,6.2139 85.13201,19.71902 5.95907,2.98858 11.40467,5.42771 12.10133,5.42027 0.69666,-0.007 6.12271,-5.40743 12.05788,-12 5.93517,-6.59256 11.33517,-11.97986 12,-11.97177 0.66483,0.008 5.25878,3.60147 10.20878,7.98529 4.95,4.38382 9.68027,7.9772 10.51171,7.98529 1.89018,0.0184 23.74843,-21.73632 28.62086,-28.48529 10.90653,-15.10702 14.73186,-33.99092 10.79545,-53.29216 -2.1844,-10.71065 -6.76351,-21.86865 -20.43105,-49.78467 -13.16451,-26.88861 -17.30615,-37.845543 -19.13774,-50.629969 -1.15698,-8.075683 -1.11337,-8.854901 0.60167,-10.75 2.3656,-2.613951 7.635,-2.699702 9.93193,-0.161625 0.93811,1.036608 2.16098,4.966012 2.72307,8.75 2.08062,14.006738 5.77842,23.486904 21.40175,54.868424 18.77621,37.71447 20.77625,43.60044 20.8976,61.5 0.0763,11.24881 -0.20243,13.35081 -2.78428,21 -5.96046,17.65893 -13.29661,28.65048 -31.54192,47.25839 -8.06784,8.22817 -9.39911,10.03149 -8.4897,11.5 0.59319,0.95788 5.76351,5.93506 11.48959,11.06039 5.72608,5.12533 10.5464,9.91011 10.71182,10.63284 0.16542,0.72274 -4.67208,6.87509 -10.75,13.67189 C 450.97284,316.92032 446,323.10977 446,323.87784 c 0,0.76808 2.06132,4.5254 4.58072,8.3496 24.98873,37.9305 35.02192,85.48394 27.95841,132.51202 -9.01446,60.01728 -47.70147,112.60488 -103.56772,140.78054 -14.4478,7.28662 -39.81149,15.14028 -54.97141,17.02145 -3.025,0.37537 -5.95,1.02601 -6.5,1.44586 -1.51695,1.15799 -26.9891,1.85323 -35.5,0.96895 z M 405.02135,91.237003 C 405.04378,90.462979 412.39118,85 413.40978,85 413.7344,85 414,85.58533 414,86.300734 c 0,0.715404 -2.025,2.284556 -4.5,3.487003 -2.475,1.202448 -4.49039,1.854618 -4.47865,1.449266 z M 458.71556,62.38223 c -1.7738,-1.773799 1.39221,-2.374953 12.09346,-2.296277 6.95117,0.0511 10.67742,0.392477 9.19098,0.842009 -3.58684,1.084741 -20.49847,2.240235 -21.28444,1.454268 z m -38.70083,-9.363629 c -1.79071,-2.260956 -3.07854,-4.28812 -2.86186,-4.504808 0.21669,-0.216689 2.18344,1.119038 4.37056,2.968281 2.94671,2.491498 3.68788,3.658159 2.86185,4.504809 -0.82938,0.850096 -1.94809,0.09032 -4.37055,-2.968282 z M 450,49.45484 c 0,-1.340993 8.61777,-15.161679 11.19559,-17.95484 1.58721,-1.719806 -0.30126,2.567877 -4.95497,11.25 C 452.0127,50.637758 450,52.800179 450,49.45484 Z"
       id="path829"
       inkscape:connector-curvature="0" />
    <path
       style="fill:#000000"
       d="m 285,625.02115 c -2.475,-0.42261 -10.125,-1.52339 -17,-2.44618 -43.06668,-5.78061 -80.59127,-24.19998 -110.47134,-54.2261 C 128.93056,539.61099 110.59003,503.18959 104.47872,463 c -2.09499,-13.77716 -2.1105,-41.05336 -0.0313,-55 11.28055,-75.66564 66.33085,-136.93926 139.7519,-155.55053 15.02117,-3.80767 18.99394,-4.44519 34.22153,-5.49161 34.09886,-2.34322 67.49918,4.33327 97.74961,19.53945 6.02073,3.02648 11.52025,5.50269 12.22117,5.50269 0.70091,0 6.09412,-5.4 11.98491,-12 5.8908,-6.6 11.21466,-12 11.8308,-12 0.93342,0 7.26836,5.23782 17.23119,14.247 1.06621,0.96415 2.77135,1.753 3.7892,1.753 2.51641,0 24.34535,-21.95348 29.70079,-29.87024 C 471.5236,221.42403 475.69495,206.40045 474.62606,192 473.43455,175.94775 469.99282,166.48852 451.70355,129 440.49053,106.01607 436.72317,96.568583 434.43693,85.700191 431.7623,72.985445 432.80065,68.75 438.59236,68.75 c 4.02849,0 5.55295,2.427105 6.93128,11.03535 2.25064,14.056226 6.51429,24.93495 21.12227,53.89361 17.19704,34.09115 20.42717,43.11302 21.11482,58.97445 0.42963,9.90973 0.192,12.1698 -2.13106,20.26838 -5.16931,18.02112 -13.17815,30.41529 -32.50544,50.30415 -7.78826,8.01455 -9.29058,10.05058 -8.53778,11.57088 0.50245,1.01471 5.75105,6.2376 11.66355,11.60642 5.9125,5.36882 10.75,10.17256 10.75,10.67498 0,0.50241 -2.85971,4.02966 -6.35492,7.83832 -10.72102,11.6825 -15.64642,17.73574 -15.61555,19.19127 0.0162,0.76571 2.27833,4.76719 5.02685,8.89219 5.60156,8.40684 14.43098,25.90843 18.41397,36.5 12.86422,34.20848 14.99577,76.76771 5.66177,113.04477 -11.8876,46.20174 -42.08895,87.27262 -83.17523,113.11016 -21.08834,13.26163 -49.15522,23.38689 -72.95689,26.31955 -5.225,0.64379 -11.525,1.56729 -14,2.05223 -7.40994,1.45187 -14.23039,1.80884 -19,0.99444 z M 461.25,61.310674 c 0.9625,-0.251527 2.5375,-0.251527 3.5,0 0.9625,0.251528 0.175,0.457323 -1.75,0.457323 -1.925,0 -2.7125,-0.205795 -1.75,-0.457323 z M 451,48.789111 c 0,-0.849322 0.74867,-2.161822 1.66372,-2.916666 C 454.18556,44.617043 454.21664,44.713202 453.02827,47 451.2861,50.352446 451,50.604812 451,48.789111 Z"
       id="path827"
       inkscape:connector-curvature="0" />
  </g>
</svg>
