<?xml version="1.0" encoding="UTF-8" standalone="no"?>
<!-- Created with Inkscape (http://www.inkscape.org/) -->

<svg
   xmlns:dc="http://purl.org/dc/elements/1.1/"
   xmlns:cc="http://creativecommons.org/ns#"
   xmlns:rdf="http://www.w3.org/1999/02/22-rdf-syntax-ns#"
   xmlns:svg="http://www.w3.org/2000/svg"
   xmlns="http://www.w3.org/2000/svg"
   xmlns:xlink="http://www.w3.org/1999/xlink"
   xmlns:sodipodi="http://sodipodi.sourceforge.net/DTD/sodipodi-0.dtd"
   xmlns:inkscape="http://www.inkscape.org/namespaces/inkscape"
   width="284.35077mm"
   height="48.382927mm"
   viewBox="0 0 284.35077 48.382928"
   version="1.1"
   id="svg8"
   inkscape:version="0.92.3 (2405546, 2018-03-11)"
   sodipodi:docname="title.svg">
  <defs
     id="defs2">
    <radialGradient
       inkscape:collect="always"
       xlink:href="#linearGradient5179"
       id="radialGradient5187-1"
       cx="-1639.8306"
       cy="-77.796608"
       fx="-1639.8306"
       fy="-77.796608"
       r="114.40678"
       gradientTransform="matrix(2.5153574,0,0,2.0037904,4560.2822,504.87741)"
       gradientUnits="userSpaceOnUse" />
    <linearGradient
       inkscape:collect="always"
       id="linearGradient5179">
      <stop
         style="stop-color:#ffffff;stop-opacity:1;"
         offset="0"
         id="stop5175" />
      <stop
         style="stop-color:#ffffff;stop-opacity:0;"
         offset="1"
         id="stop5177" />
    </linearGradient>
    <filter
       inkscape:collect="always"
       style="color-interpolation-filters:sRGB"
       id="filter5217"
       x="-0.20804888"
       width="1.4160978"
       y="-0.26116371"
       height="1.5223274">
      <feGaussianBlur
         inkscape:collect="always"
         stdDeviation="49.892541"
         id="feGaussianBlur5219" />
    </filter>
    <radialGradient
       inkscape:collect="always"
       xlink:href="#linearGradient5179"
       id="radialGradient5187"
       cx="-1639.8306"
       cy="-77.796608"
       fx="-1639.8306"
       fy="-77.796608"
       r="114.40678"
       gradientTransform="matrix(0.03159543,0,0,0.04928887,-145.9525,85.397903)"
       gradientUnits="userSpaceOnUse" />
    <radialGradient
       inkscape:collect="always"
       xlink:href="#linearGradient5179"
       id="radialGradient5187-1-2"
       cx="-1639.8306"
       cy="-77.796608"
       fx="-1639.8306"
       fy="-77.796608"
       r="114.40678"
       gradientTransform="matrix(2.5153574,0,0,2.0037904,4560.2822,504.87741)"
       gradientUnits="userSpaceOnUse" />
    <filter
       inkscape:collect="always"
       style="color-interpolation-filters:sRGB"
       id="filter5217-6"
       x="-0.20804888"
       width="1.4160978"
       y="-0.26116371"
       height="1.5223274">
      <feGaussianBlur
         inkscape:collect="always"
         stdDeviation="49.892541"
         id="feGaussianBlur5219-7" />
    </filter>
    <radialGradient
       inkscape:collect="always"
       xlink:href="#linearGradient5179"
       id="radialGradient5187-8"
       cx="-1639.8306"
       cy="-77.796608"
       fx="-1639.8306"
       fy="-77.796608"
       r="114.40678"
       gradientTransform="matrix(0.03159543,0,0,0.04928887,-103.99119,86.734249)"
       gradientUnits="userSpaceOnUse" />
  </defs>
  <sodipodi:namedview
     id="base"
     pagecolor="#ffffff"
     bordercolor="#666666"
     borderopacity="1.0"
     inkscape:pageopacity="0.0"
     inkscape:pageshadow="2"
     inkscape:zoom="1.979899"
     inkscape:cx="362.5823"
     inkscape:cy="55.033773"
     inkscape:document-units="mm"
     inkscape:current-layer="text817"
     showgrid="false"
     inkscape:window-width="1920"
     inkscape:window-height="1057"
     inkscape:window-x="-8"
     inkscape:window-y="-8"
     inkscape:window-maximized="1" />
  <metadata
     id="metadata5">
    <rdf:RDF>
      <cc:Work
         rdf:about="">
        <dc:format>image/svg+xml</dc:format>
        <dc:type
           rdf:resource="http://purl.org/dc/dcmitype/StillImage" />
        <dc:title />
      </cc:Work>
    </rdf:RDF>
  </metadata>
  <g
     inkscape:label="Livello 1"
     inkscape:groupmode="layer"
     id="layer1"
     transform="translate(359.1903,-61.257323)">
    <g
       aria-label="BALLOONS"
       style="font-style:normal;font-variant:normal;font-weight:normal;font-stretch:normal;font-size:55.45666504px;line-height:1.25;font-family:Rockwell;-inkscape-font-specification:'Rockwell, Normal';font-variant-ligatures:normal;font-variant-caps:normal;font-variant-numeric:normal;font-feature-settings:normal;text-align:start;letter-spacing:0px;word-spacing:0px;writing-mode:lr-tb;text-anchor:start;fill:#272727;fill-opacity:0.91346154;stroke:none;stroke-width:1.38646042"
       id="text817">
      <path
         d="M -354.55989,100.32026 V 72.07744 h -4.63041 v -4.71165 h 12.53732 q 5.17198,0 7.74443,0.622805 2.59954,0.622804 4.57626,3.168178 1.97673,2.518296 1.97673,5.930181 0,2.626609 -1.19145,4.738728 -1.16438,2.112119 -3.43897,3.195257 3.1411,1.083138 4.81997,3.601434 1.70594,2.491218 1.70594,5.713553 0,2.78908 -1.27269,5.06367 -1.24561,2.274594 -3.33065,3.520194 -2.08504,1.24561 -4.57625,1.67887 -2.46414,0.43325 -6.74254,0.43325 h -12.8081 v -4.71165 z m 5.68647,-17.276047 h 3.54728 q 4.06177,0 5.6594,-1.40808 1.6247,-1.435158 1.6247,-4.19716 0,-5.361533 -7.2841,-5.361533 h -3.54728 z m 0,17.276047 h 2.1392 q 4.19716,0 6.14681,-0.406173 1.94965,-0.433255 3.16818,-1.976727 1.24561,-1.57055 1.24561,-4.007611 0,-2.220433 -1.19145,-3.709747 -1.16438,-1.516393 -3.03279,-2.003806 -1.84133,-0.51449 -5.22614,-0.51449 h -3.24942 z"
         style="font-style:normal;font-variant:normal;font-weight:normal;font-stretch:normal;font-size:55.45666504px;font-family:Rockwell;-inkscape-font-specification:'Rockwell, Normal';font-variant-ligatures:normal;font-variant-caps:normal;font-variant-numeric:normal;font-feature-settings:normal;text-align:start;writing-mode:lr-tb;text-anchor:start;fill:#000000;fill-opacity:0.91346148;stroke-width:1.38646042"
         id="path1508"
         inkscape:connector-curvature="0" />
      <path
         d="m -301.78399,91.790552 h -13.53923 l -2.89739,8.529708 h 4.57626 v 4.71165 h -14.83899 v -4.71165 h 4.54918 l 10.28981,-28.703153 h -4.57626 V 67.36579 h 19.25278 v 4.251317 h -4.68457 l 10.53351,28.703153 h 4.22424 v 4.71165 h -14.75775 v -4.71165 h 4.68457 z m -1.40808,-4.413787 -5.00951,-15.759658 h -0.51449 l -5.19907,15.759658 z"
         style="font-style:normal;font-variant:normal;font-weight:normal;font-stretch:normal;font-size:55.45666504px;font-family:Rockwell;-inkscape-font-specification:'Rockwell, Normal';font-variant-ligatures:normal;font-variant-caps:normal;font-variant-numeric:normal;font-feature-settings:normal;text-align:start;writing-mode:lr-tb;text-anchor:start;fill:#000000;fill-opacity:0.91346148;stroke-width:1.38646042"
         id="path1510"
         inkscape:connector-curvature="0" />
      <path
         d="M -283.61435,100.32026 V 72.07744 h -4.87412 v -4.71165 h 15.40764 v 4.71165 h -4.63041 v 28.24282 h 11.53541 V 87.512157 h 5.30738 v 17.519753 h -27.62002 v -4.71165 z"
         style="font-style:normal;font-variant:normal;font-weight:normal;font-stretch:normal;font-size:55.45666504px;font-family:Rockwell;-inkscape-font-specification:'Rockwell, Normal';font-variant-ligatures:normal;font-variant-caps:normal;font-variant-numeric:normal;font-feature-settings:normal;text-align:start;writing-mode:lr-tb;text-anchor:start;fill:#000000;fill-opacity:0.91346148;stroke-width:1.38646042"
         id="path1512"
         inkscape:connector-curvature="0" />
      <path
         d="M -254.69456,100.32026 V 72.07744 h -4.87412 v -4.71165 h 15.40763 v 4.71165 h -4.63041 v 28.24282 h 11.53542 V 87.512157 h 5.30738 v 17.519753 h -27.62002 v -4.71165 z"
         style="font-style:normal;font-variant:normal;font-weight:normal;font-stretch:normal;font-size:55.45666504px;font-family:Rockwell;-inkscape-font-specification:'Rockwell, Normal';font-variant-ligatures:normal;font-variant-caps:normal;font-variant-numeric:normal;font-feature-settings:normal;text-align:start;writing-mode:lr-tb;text-anchor:start;fill:#000000;fill-opacity:0.91346148;stroke-width:1.38646042"
         id="path1514"
         inkscape:connector-curvature="0" />
      <path
         d="M -136.74084,100.32026 V 72.07744 h -5.38861 v -4.71165 h 12.86226 l 16.51785,29.271804 V 72.07744 h -5.33445 v -4.71165 h 15.46179 v 4.71165 h -5.55108 v 33.33357 h -5.84894 l -18.06133,-32.142118 v 27.051368 h 5.38861 v 4.71165 h -15.43471 v -4.71165 z"
         style="font-style:normal;font-variant:normal;font-weight:normal;font-stretch:normal;font-size:55.45666504px;font-family:Rockwell;-inkscape-font-specification:'Rockwell, Normal';font-variant-ligatures:normal;font-variant-caps:normal;font-variant-numeric:normal;font-feature-settings:normal;text-align:start;writing-mode:lr-tb;text-anchor:start;fill:#000000;fill-opacity:0.91346154;stroke-width:1.38646042"
         id="path1520"
         inkscape:connector-curvature="0" />
      <path
         d="M -100.6182,105.03191 V 91.357297 h 4.711649 v 3.330649 q 3.384806,6.146804 8.854653,6.146804 2.78908,0 4.71165,-1.705938 1.92257,-1.705943 1.92257,-4.467944 0,-2.680767 -1.57055,-3.84514 -1.57055,-1.191452 -5.930181,-2.355825 -5.06367,-1.353923 -7.50073,-2.545375 -2.437061,-1.21853 -3.899297,-3.438963 -1.435154,-2.247511 -1.435154,-5.307376 0,-4.738729 3.141096,-7.554887 3.168179,-2.843238 7.933986,-2.843238 4.522101,0 8.39432,2.924473 v -2.518296 h 4.603336 v 11.427106 h -4.603336 v -2.62661 q -2.897395,-4.35963 -7.988143,-4.35963 -3.086943,0 -4.738729,1.435158 -1.651785,1.408079 -1.651785,3.384806 0,1.516393 0.839432,2.680766 0.839432,1.137295 2.139197,1.678864 1.299766,0.541569 5.117827,1.516393 4.982435,1.299766 7.229946,2.437061 2.247512,1.110216 3.872219,3.736826 1.624707,2.62661 1.624707,6.038494 0,4.819964 -3.411885,7.961065 -3.384806,3.1411 -8.394319,3.1411 -5.144906,0 -9.26083,-3.70975 v 3.11402 z"
         style="font-style:normal;font-variant:normal;font-weight:normal;font-stretch:normal;font-size:55.45666504px;font-family:Rockwell;-inkscape-font-specification:'Rockwell, Normal';font-variant-ligatures:normal;font-variant-caps:normal;font-variant-numeric:normal;font-feature-settings:normal;text-align:start;writing-mode:lr-tb;text-anchor:start;fill:#000000;fill-opacity:0.91346154;stroke-width:1.38646042"
         id="path1522"
         inkscape:connector-curvature="0" />
      <path
         style="fill:#000000;fill-opacity:1;stroke:none;stroke-width:0.04212725"
         d="m -209.61761,108.22146 c -1.2249,-0.35035 -1.69324,-1.18854 -1.02378,-1.8322 0.0703,-0.0676 0.1278,-0.13716 0.1278,-0.15462 0,-0.0338 0.40299,-0.71964 0.69085,-1.17585 0.095,-0.15058 0.27276,-0.39229 0.395,-0.53712 l 0.22224,-0.26335 -0.20118,-0.007 c -0.11065,-0.004 -0.22962,-0.004 -0.26437,-0.002 -0.0348,0.002 -0.17693,-0.0147 -0.31595,-0.0386 -0.13902,-0.0239 -0.30726,-0.0513 -0.37386,-0.0611 -0.70232,-0.10309 -2.15241,-0.70334 -3.06888,-1.27032 -0.96134,-0.59475 -2.09023,-1.45701 -3.01979,-2.30655 -0.42611,-0.38944 -1.57639,-1.551951 -1.98106,-2.002121 -0.23952,-0.26646 -0.52353,-0.57926 -0.63114,-0.69511 -1.00597,-1.08297 -2.99979,-3.803411 -3.65871,-4.992073 -0.0578,-0.10427 -0.20515,-0.369668 -0.32745,-0.58978 -0.27456,-0.493993 -0.75337,-1.488073 -1.0856,-2.253681 -0.64068,-1.47646 -1.38084,-4.206511 -1.5647,-5.771431 -0.0136,-0.11585 -0.0335,-0.28501 -0.0441,-0.37591 -0.0909,-0.776 -0.15528,-2.29467 -0.1323,-3.12226 0.0504,-1.81356 0.15688,-2.53656 0.69493,-4.71663 0.24107,-0.97675 0.79652,-2.625521 1.0181,-3.02206 0.0225,-0.0402 0.0409,-0.0896 0.0409,-0.10967 0,-0.0521 0.50543,-1.092821 0.75567,-1.556 0.48834,-0.90393 1.24054,-1.989191 1.96484,-2.83484 2.20885,-2.578961 5.23431,-4.374481 8.75917,-5.198311 0.92822,-0.21694 1.12492,-0.25686 1.45339,-0.29498 0.0811,-0.009 0.39909,-0.0486 0.70666,-0.0872 0.46428,-0.0582 0.82904,-0.0666 2.1485,-0.0498 0.87409,0.0112 1.66509,0.0327 1.75777,0.048 0.0927,0.0152 0.22538,0.0354 0.2949,0.0448 1.58311,0.21415 3.1534,0.6724 4.69718,1.37073 0.26645,0.120531 0.50342,0.2338 0.52659,0.25172 0.0231,0.0179 0.22222,0.131911 0.44233,0.2533 0.78194,0.43128 1.80596,1.15132 2.57436,1.8102 0.40593,0.348061 1.74817,1.709201 1.93541,1.962661 0.0905,0.12247 0.18284,0.234009 0.20527,0.247869 0.0792,0.049 0.80461,1.03272 1.21953,1.653831 0.91826,1.37462 1.57355,2.665789 2.20836,4.35129 0.3135,0.8324 0.70617,2.35103 0.7625,2.94891 0.01,0.10427 0.0485,0.48341 0.086,0.84254 0.1048,1.00407 0.0811,3.28708 -0.0401,3.85464 -0.01,0.0464 -0.0281,0.21696 -0.0405,0.37915 -0.0339,0.44535 -0.25047,1.52503 -0.57459,2.86465 -0.1983,0.8196 -0.74628,2.431311 -1.1745,3.454439 -0.097,0.231701 -0.21465,0.516051 -0.26151,0.631912 -0.10998,0.271939 -0.95408,1.98954 -1.0455,2.127419 -0.0384,0.058 -0.16691,0.288031 -0.28555,0.511339 -0.40718,0.76635 -0.99464,1.694561 -1.98679,3.139166 -1.71352,2.49499 -3.94195,4.935021 -5.75205,6.298271 -0.83573,0.62942 -1.55107,1.07149 -2.42231,1.49697 -0.62818,0.30676 -1.53501,0.62481 -2.01857,0.70795 -0.0791,0.0136 -0.15581,0.0321 -0.17036,0.0411 -0.0716,0.0442 -0.67002,0.0654 -0.69526,0.0246 -0.0162,-0.0262 0.0125,-0.046 0.0697,-0.048 1.24452,-0.0432 2.97007,-0.74757 4.62228,-1.88671 2.0045,-1.38203 4.20371,-3.708701 6.21391,-6.574011 2.01744,-2.875631 3.30391,-5.34047 4.32233,-8.28148 0.16265,-0.46972 0.53738,-1.76291 0.62256,-2.14849 0.0256,-0.11585 0.0846,-0.37177 0.1311,-0.56871 0.34455,-1.45885 0.48617,-2.76902 0.48271,-4.46549 -0.002,-0.98841 -0.0233,-1.29081 -0.17081,-2.42232 -0.0665,-0.5105 0.13528,0.18346 -0.0655,-0.43733 -0.098,-0.30309 -0.65556,-2.38208 -1.03306,-3.33306 -0.18762,-0.47264 -0.78209,-1.68482 -1.08466,-2.21168 -0.52186,-0.90874 -1.15829,-1.85147 -1.74661,-2.58717 -0.17441,-0.2181 -0.39792,-0.49768 -0.49669,-0.62128 -0.30745,-0.38474 -1.69432,-1.74988 -2.15848,-2.12466 -1.97415,-1.593985 -3.95509,-2.568996 -6.40334,-3.151696 -0.56755,-0.13507 -1.40443,-0.28341 -1.79861,-0.31879 -1.42581,-0.128 -2.47986,-0.14025 -3.57205,-0.0416 -0.90173,0.0815 -1.31568,0.14897 -2.31756,0.37778 -2.19133,0.50045 -4.09705,1.32565 -5.89782,2.55384 -1.84289,1.256901 -3.37632,2.90636 -4.63597,4.986711 -0.82304,1.359299 -1.78072,3.73287 -2.13314,5.28697 -0.0236,0.10427 -0.12585,0.54976 -0.22713,0.98999 -0.18716,0.81351 -0.2495,1.13914 -0.29038,1.51658 -0.0125,0.11585 -0.0321,0.25803 -0.0434,0.31595 -0.092,0.4708 -0.10974,3.29531 -0.0259,4.12847 0.0291,0.28963 0.061,0.62138 0.0708,0.73723 0.0337,0.39656 0.0686,0.63259 0.19273,1.30303 0.12882,0.69562 0.37784,1.80003 0.48033,2.13034 0.0323,0.10426 0.13398,0.43819 0.22584,0.742051 0.0919,0.303858 0.26381,0.806228 0.3821,1.11637 0.22072,0.578688 0.22881,0.598818 0.37076,0.92198 0.0458,0.10427 0.17173,0.39315 0.27983,0.641969 0.86038,1.98029 2.22967,4.056205 4.46246,6.765315 0.38827,0.47112 1.28696,1.43464 2.00745,2.15229 2.27323,2.264301 4.37174,3.675521 6.31909,4.249551 0.65192,0.19216 1.02135,0.25309 1.56924,0.25884 0.16448,0.002 1.34574,-0.0366 1.34559,-5.3e-4 0,0.029 -1.21006,0.2414 -1.33991,0.40359 -0.3181,0.39737 -0.44154,0.57983 -0.62747,0.92751 -0.0865,0.1618 -0.18023,0.32262 -0.20824,0.35737 -0.028,0.0347 -0.10466,0.15798 -0.17034,0.27382 -0.0657,0.11586 -0.18878,0.29009 -0.27355,0.38719 -0.29376,0.33653 -0.30269,0.66261 -0.0273,0.99865 0.37693,0.45999 1.17093,0.74228 2.08431,0.74104 0.90174,-0.001 1.64908,-0.27884 1.92194,-0.71394 0.15425,-0.24596 0.15992,-0.34862 0.0434,-0.78644 -0.28156,-1.05821 -0.74227,-1.85549 -1.32685,-2.29619 -0.081,-0.061 -0.34874,-0.22826 -0.33313,-0.24461 0.0156,-0.0163 0.34981,0.15509 0.48079,0.25397 0.50966,0.3848 1.00917,1.29253 1.26395,2.29693 0.13266,0.52294 0.0844,0.7338 -0.23503,1.02785 -0.20598,0.18959 -0.53841,0.35858 -0.86649,0.44049 -0.38275,0.0956 -1.62814,0.0852 -1.98365,-0.0165 z m 1.97542,-1.82144 c -0.10055,-0.0462 -0.17348,-0.0933 -0.16206,-0.1047 0.0225,-0.0225 0.36594,0.14228 0.36594,0.17554 0,0.0247 0.0166,0.0304 -0.20388,-0.0708 z m 0.28814,-0.20385 c -0.0811,-0.0444 -0.13229,-0.0815 -0.11376,-0.0825 0.0446,-0.002 0.28227,0.12121 0.28227,0.14677 0,0.0276 -0.002,0.0266 -0.16851,-0.0643 z"
         id="path5077"
         inkscape:connector-curvature="0"
         sodipodi:nodetypes="ccscccccscccccccccccccsssscsscscssccccsccccccccssccccccssccccccccccsscssscccccccccscccscsccccccccsccccccccccccscccsc" />
      <path
         style="fill:#f07871;fill-opacity:1;stroke:none;stroke-width:1000;stroke-miterlimit:4;stroke-dasharray:none;stroke-opacity:1"
         d="m -209.87807,104.06684 c -1.56617,-0.1705 -3.50037,-1.13901 -5.4462,-2.72706 -1.82298,-1.487771 -4.45078,-4.386111 -6.08365,-6.709921 -1.95249,-2.778696 -3.18975,-5.607256 -3.90016,-8.916345 -0.29169,-1.35867 -0.31311,-1.59289 -0.35509,-3.8826 -0.0498,-2.71293 0.002,-3.25236 0.50586,-5.30485 0.91305,-3.717031 2.36087,-6.401131 4.71589,-8.74278 2.20301,-2.190501 4.5364,-3.48968 7.69842,-4.286281 1.62899,-0.41039 2.72364,-0.51657 4.72652,-0.45846 4.31153,0.12508 7.69152,1.575541 10.78551,4.6284 1.57642,1.555471 3.13089,3.802011 4.01651,5.804681 0.58968,1.33345 1.26879,3.61921 1.41763,4.77145 0.75666,5.85776 -1.69276,12.774419 -6.84246,19.321725 -1.0099,1.28398 -3.56411,3.811811 -4.58284,4.535491 -1.05792,0.75155 -2.7946,1.61949 -3.63212,1.81523 -0.72344,0.16909 -2.1876,0.24235 -3.02382,0.15132 z"
         id="path5127"
         inkscape:connector-curvature="0" />
      <path
         style="fill:#f07871;fill-opacity:1;stroke:none;stroke-width:0.21895596;stroke-miterlimit:4;stroke-dasharray:none;stroke-opacity:1"
         d="m -209.54069,108.08642 c -0.66427,-0.21008 -1.01403,-0.44095 -1.17297,-0.77427 l -0.15356,-0.32203 0.7151,-1.14361 c 0.73108,-1.16917 0.93582,-1.35781 1.6512,-1.5214 0.23238,-0.0531 0.33764,0.008 0.7799,0.44983 0.40128,0.40129 0.57675,0.68109 0.81578,1.30091 0.16749,0.43433 0.30452,0.91671 0.30452,1.07197 0,0.79221 -1.69341,1.33282 -2.93997,0.9386 z m 2.07244,-1.69663 c -0.0795,-0.0514 -0.3054,0.0422 -0.38493,0.0422 -0.12852,0 -0.0328,-0.12527 0.0958,-0.0422 0.0795,0.0514 -0.16536,-0.1938 -0.0858,-0.1938 0.12852,0 0.50354,0.27686 0.37501,0.1938 z m 0.10135,-0.0452 c -0.0327,-0.053 0.0367,-0.24399 -0.0163,-0.24399 -0.053,0 0.26953,-0.009 0.3023,0.0445 0.0327,0.053 -0.23616,0.14825 -0.18315,0.14825 0.053,0 -0.07,0.10423 -0.10281,0.0512 z"
         id="path5129"
         inkscape:connector-curvature="0"
         sodipodi:nodetypes="cccccccsccscsccscsc" />
      <path
         style="fill:#71bdf0;fill-opacity:1;stroke:none;stroke-width:0.01368475;stroke-miterlimit:4;stroke-dasharray:none;stroke-opacity:1"
         d="m -225.2251,86.325654 c -0.11687,-0.52382 -0.2125,-0.99895 -0.29495,-1.46547 -0.0745,-0.42135 -0.0985,-0.60079 -0.13946,-1.04225 -0.0151,-0.16237 -0.0367,-0.38924 -0.0482,-0.50417 -0.048,-0.48231 -0.0616,-0.84382 -0.0671,-1.77914 -0.005,-0.90861 0.01,-1.68005 0.0435,-2.1839 0.0103,-0.15482 0.0196,-0.23964 0.0414,-0.37653 0.008,-0.053 0.0249,-0.17637 0.0366,-0.27412 0.0392,-0.32771 0.0631,-0.4652 0.16671,-0.96242 0.007,-0.0316 0.007,-0.0316 0.0299,-0.0316 0.0128,0 0.0233,0.002 0.0233,0.004 0,0.002 -0.0135,0.0732 -0.0299,0.15814 -0.11313,0.58292 -0.17047,1.06631 -0.19876,1.67557 -0.0248,0.53288 -0.023,1.34598 0.006,2.75322 0.0354,1.72935 0.0695,2.09718 0.29289,3.1659 0.0536,0.25611 0.13383,0.61793 0.18042,0.81317 0.0213,0.0894 0.0388,0.16597 0.0388,0.17019 0,0.005 -0.009,0.008 -0.0261,0.008 h -0.0261 z"
         id="path5131"
         inkscape:connector-curvature="0" />
      <path
         style="fill:#71bdf0;fill-opacity:1;stroke:none;stroke-width:0.00483829;stroke-miterlimit:4;stroke-dasharray:none;stroke-opacity:1"
         d="m -225.43336,77.711504 c -0.001,-0.004 -0.004,-0.005 -0.015,-0.006 -0.0158,-0.002 -0.0256,-1.3e-4 -0.0307,0.005 -0.004,0.004 -0.005,0.0101 0.023,-0.118869 0.0323,-0.14544 0.23083,-1.01435 0.24177,-1.05796 0.001,-0.005 0.002,-0.005 0.0284,-0.005 h 0.0272 l -0.0168,0.0687 c -0.10305,0.42074 -0.18349,0.76922 -0.24104,1.04409 -0.009,0.0409 -0.0161,0.0724 -0.0168,0.07 z"
         id="path5133"
         inkscape:connector-curvature="0" />
      <ellipse
         style="opacity:0.40500004;fill:url(#radialGradient5187);fill-opacity:1;stroke:none;stroke-width:0.0717689;stroke-miterlimit:4;stroke-dasharray:none;stroke-opacity:1"
         id="path5137"
         cx="-197.76364"
         cy="81.563408"
         rx="3.6147313"
         ry="5.6389813" />
      <ellipse
         style="opacity:0.52899996;fill:url(#radialGradient5187-1);fill-opacity:1;stroke:none;stroke-width:4.08296537;stroke-miterlimit:4;stroke-dasharray:none;stroke-opacity:1;filter:url(#filter5217)"
         id="path5137-4"
         cx="435.52237"
         cy="348.98929"
         rx="287.77396"
         ry="229.24719"
         transform="matrix(0.03159543,0,0,0.03159543,-225.87929,61.257323)" />
      <path
         style="fill:#000000;fill-opacity:1;stroke:none;stroke-width:0.04212725"
         d="m -167.6563,109.5578 c -1.2249,-0.35035 -1.69324,-1.18854 -1.02378,-1.8322 0.0703,-0.0676 0.1278,-0.13716 0.1278,-0.15462 0,-0.0338 0.40299,-0.71964 0.69085,-1.17585 0.095,-0.15058 0.27276,-0.39229 0.395,-0.53712 l 0.22224,-0.26335 -0.20118,-0.007 c -0.11065,-0.004 -0.22962,-0.004 -0.26437,-0.002 -0.0348,0.002 -0.17693,-0.0147 -0.31595,-0.0386 -0.13902,-0.0239 -0.30726,-0.0513 -0.37386,-0.0611 -0.70232,-0.10309 -2.15241,-0.70334 -3.06888,-1.27032 -0.96134,-0.59475 -2.09023,-1.45701 -3.01979,-2.30655 -0.42611,-0.38944 -1.57639,-1.55195 -1.98106,-2.002118 -0.23952,-0.26646 -0.52353,-0.57926 -0.63114,-0.69511 -1.00597,-1.082967 -2.99979,-3.803408 -3.65871,-4.99207 -0.0578,-0.10427 -0.20515,-0.369668 -0.32745,-0.58978 -0.27456,-0.493993 -0.75337,-1.488073 -1.0856,-2.253681 -0.64068,-1.47646 -1.38084,-4.206511 -1.5647,-5.771431 -0.0136,-0.11585 -0.0335,-0.28501 -0.0441,-0.37591 -0.0909,-0.776 -0.15528,-2.29467 -0.1323,-3.12226 0.0504,-1.81356 0.15688,-2.53656 0.69493,-4.71663 0.24107,-0.97675 0.79652,-2.625521 1.0181,-3.02206 0.0225,-0.0402 0.0409,-0.0896 0.0409,-0.10967 0,-0.0521 0.50543,-1.092821 0.75567,-1.556 0.48834,-0.90393 1.24054,-1.989191 1.96484,-2.83484 2.20885,-2.578961 5.23431,-4.374481 8.75917,-5.198311 0.92822,-0.21694 1.12492,-0.25686 1.45339,-0.29498 0.0811,-0.009 0.39909,-0.0486 0.70666,-0.0872 0.46428,-0.0582 0.82904,-0.0666 2.1485,-0.0498 0.87409,0.0112 1.66509,0.0327 1.75777,0.048 0.0927,0.0152 0.22538,0.0354 0.2949,0.0448 1.58311,0.21415 3.1534,0.6724 4.69718,1.37073 0.26645,0.120531 0.50342,0.2338 0.52659,0.25172 0.0231,0.0179 0.22222,0.131911 0.44233,0.2533 0.78194,0.43128 1.80596,1.15132 2.57436,1.8102 0.40593,0.348061 1.74817,1.709201 1.93541,1.962661 0.0905,0.12247 0.18284,0.234009 0.20527,0.247869 0.0792,0.049 0.80461,1.03272 1.21953,1.653831 0.91826,1.37462 1.57355,2.665789 2.20836,4.35129 0.3135,0.8324 0.70617,2.35103 0.7625,2.94891 0.01,0.10427 0.0485,0.48341 0.086,0.84254 0.1048,1.00407 0.0811,3.28708 -0.0401,3.85464 -0.01,0.0464 -0.0281,0.21696 -0.0405,0.37915 -0.0339,0.44535 -0.25047,1.52503 -0.57459,2.86465 -0.1983,0.8196 -0.74628,2.431311 -1.1745,3.454439 -0.097,0.231701 -0.21465,0.516051 -0.26151,0.631912 -0.10998,0.271939 -0.95408,1.98954 -1.0455,2.127419 -0.0384,0.058 -0.16691,0.288031 -0.28555,0.511339 -0.40718,0.76635 -0.99464,1.694561 -1.98679,3.139166 -1.71352,2.494987 -3.94195,4.935015 -5.75205,6.298265 -0.83573,0.62942 -1.55107,1.07149 -2.42231,1.49697 -0.62818,0.30676 -1.53501,0.62481 -2.01857,0.70795 -0.0791,0.0136 -0.15581,0.0321 -0.17036,0.0411 -0.0716,0.0442 -0.67002,0.0654 -0.69526,0.0246 -0.0162,-0.0262 0.0125,-0.046 0.0697,-0.048 1.24452,-0.0432 2.97007,-0.74757 4.62228,-1.88671 2.0045,-1.38203 4.20371,-3.708698 6.21391,-6.574005 2.01744,-2.875631 3.30391,-5.34047 4.32233,-8.28148 0.16265,-0.46972 0.53738,-1.76291 0.62256,-2.14849 0.0256,-0.11585 0.0846,-0.37177 0.1311,-0.56871 0.34455,-1.45885 0.48617,-2.76902 0.48271,-4.46549 -0.002,-0.98841 -0.0233,-1.29081 -0.17081,-2.42232 -0.0665,-0.5105 0.13528,0.18346 -0.0655,-0.43733 -0.098,-0.30309 -0.65556,-2.38208 -1.03306,-3.33306 -0.18762,-0.47264 -0.78209,-1.68482 -1.08466,-2.21168 -0.52186,-0.90874 -1.15829,-1.85147 -1.74661,-2.58717 -0.17441,-0.2181 -0.39792,-0.49768 -0.49669,-0.62128 -0.30745,-0.38474 -1.69432,-1.74988 -2.15848,-2.12466 -1.97415,-1.593985 -3.95509,-2.568996 -6.40334,-3.151696 -0.56755,-0.13507 -1.40443,-0.28341 -1.79861,-0.31879 -1.42581,-0.128 -2.47986,-0.14025 -3.57205,-0.0416 -0.90173,0.0815 -1.31568,0.14897 -2.31756,0.37778 -2.19133,0.50045 -4.09705,1.32565 -5.89782,2.55384 -1.84289,1.256901 -3.37632,2.90636 -4.63597,4.986711 -0.82304,1.359299 -1.78072,3.73287 -2.13314,5.28697 -0.0236,0.10427 -0.12585,0.54976 -0.22713,0.98999 -0.18716,0.81351 -0.2495,1.13914 -0.29038,1.51658 -0.0125,0.11585 -0.0321,0.25803 -0.0434,0.31595 -0.092,0.4708 -0.10974,3.29531 -0.0259,4.12847 0.0291,0.28963 0.061,0.62138 0.0708,0.73723 0.0337,0.39656 0.0686,0.63259 0.19273,1.30303 0.12882,0.69562 0.37784,1.80003 0.48033,2.13034 0.0323,0.10426 0.13398,0.43819 0.22584,0.742051 0.0919,0.303858 0.26381,0.806228 0.3821,1.11637 0.22072,0.578688 0.22881,0.598818 0.37076,0.92198 0.0458,0.10427 0.17173,0.39315 0.27983,0.641969 0.86038,1.98029 2.22967,4.056205 4.46246,6.765312 0.38827,0.47112 1.28696,1.434638 2.00745,2.152288 2.27323,2.2643 4.37174,3.67552 6.31909,4.24955 0.65192,0.19216 1.02135,0.25309 1.56924,0.25884 0.16448,0.002 1.34574,-0.0366 1.34559,-5.3e-4 0,0.029 -1.21006,0.2414 -1.33991,0.40359 -0.3181,0.39737 -0.44154,0.57983 -0.62747,0.92751 -0.0865,0.1618 -0.18023,0.32262 -0.20824,0.35737 -0.028,0.0347 -0.10466,0.15798 -0.17034,0.27382 -0.0657,0.11586 -0.18878,0.29009 -0.27355,0.38719 -0.29376,0.33653 -0.30269,0.66261 -0.0273,0.99865 0.37693,0.45999 1.17093,0.74228 2.08431,0.74104 0.90174,-10e-4 1.64908,-0.27884 1.92194,-0.71394 0.15425,-0.24596 0.15992,-0.34862 0.0434,-0.78644 -0.28156,-1.05821 -0.74227,-1.85549 -1.32685,-2.29619 -0.081,-0.061 -0.34874,-0.22826 -0.33313,-0.24461 0.0156,-0.0163 0.34981,0.15509 0.48079,0.25397 0.50966,0.3848 1.00917,1.29253 1.26395,2.29693 0.13266,0.52294 0.0844,0.7338 -0.23503,1.02785 -0.20598,0.18959 -0.53841,0.35858 -0.86649,0.44049 -0.38275,0.0956 -1.62814,0.0852 -1.98365,-0.0165 z m 1.97542,-1.82144 c -0.10055,-0.0462 -0.17348,-0.0933 -0.16206,-0.1047 0.0225,-0.0225 0.36594,0.14228 0.36594,0.17554 0,0.0247 0.0166,0.0304 -0.20388,-0.0708 z m 0.28814,-0.20385 c -0.0811,-0.0444 -0.13229,-0.0815 -0.11376,-0.0825 0.0446,-0.002 0.28227,0.12121 0.28227,0.14677 0,0.0276 -0.002,0.0266 -0.16851,-0.0643 z"
         id="path5077-7"
         inkscape:connector-curvature="0"
         sodipodi:nodetypes="ccscccccscccccccccccccsssscsscscssccccsccccccccssccccccssccccccccccsscssscccccccccscccscsccccccccsccccccccccccscccsc" />
      <path
         style="fill:#71f0aa;fill-opacity:1;stroke:none;stroke-width:0.21895596;stroke-miterlimit:4;stroke-dasharray:none;stroke-opacity:1"
         d="m -167.91676,105.40318 c -1.56617,-0.1705 -3.50037,-1.13901 -5.4462,-2.72706 -1.82298,-1.48777 -4.45078,-4.386105 -6.08365,-6.709915 -1.95249,-2.778696 -3.18975,-5.607256 -3.90016,-8.916345 -0.29169,-1.35867 -0.31311,-1.59289 -0.35509,-3.8826 -0.0498,-2.71293 0.002,-3.25236 0.50586,-5.30485 0.91305,-3.717031 2.36087,-6.401131 4.71589,-8.74278 2.20301,-2.190501 4.5364,-3.48968 7.69842,-4.286281 1.62899,-0.41039 2.72364,-0.51657 4.72652,-0.45846 4.31153,0.12508 7.69152,1.575541 10.78551,4.6284 1.57642,1.555471 3.13089,3.802011 4.01651,5.804681 0.58968,1.33345 1.26879,3.61921 1.41763,4.77145 0.75666,5.85776 -1.69276,12.774419 -6.84246,19.321722 -1.0099,1.283978 -3.56411,3.811808 -4.58284,4.535488 -1.05792,0.75155 -2.7946,1.61949 -3.63212,1.81523 -0.72344,0.16909 -2.1876,0.24235 -3.02382,0.15132 z"
         id="path5127-8"
         inkscape:connector-curvature="0" />
      <path
         style="fill:#71f0aa;fill-opacity:1;stroke:none;stroke-width:0.21895596;stroke-miterlimit:4;stroke-dasharray:none;stroke-opacity:1"
         d="m -167.57938,109.42276 c -0.66427,-0.21008 -1.01403,-0.44095 -1.17297,-0.77427 l -0.15356,-0.32203 0.7151,-1.14361 c 0.73108,-1.16917 0.93582,-1.35781 1.6512,-1.5214 0.23238,-0.0531 0.33764,0.008 0.7799,0.44983 0.40128,0.40129 0.57675,0.68109 0.81578,1.30091 0.16749,0.43433 0.30452,0.91671 0.30452,1.07197 0,0.79221 -1.69341,1.33282 -2.93997,0.9386 z m 2.07244,-1.69663 c -0.0795,-0.0514 -0.3054,0.0422 -0.38493,0.0422 -0.12852,0 -0.0328,-0.12527 0.0958,-0.0422 0.0795,0.0514 -0.16536,-0.1938 -0.0858,-0.1938 0.12852,0 0.50354,0.27686 0.37501,0.1938 z m 0.10135,-0.0452 c -0.0327,-0.053 0.0367,-0.24399 -0.0163,-0.24399 -0.053,0 0.26953,-0.009 0.3023,0.0445 0.0327,0.053 -0.23616,0.14825 -0.18315,0.14825 0.053,0 -0.07,0.10423 -0.10281,0.0512 z"
         id="path5129-7"
         inkscape:connector-curvature="0"
         sodipodi:nodetypes="cccccccsccscsccscsc" />
      <path
         style="fill:#71bdf0;fill-opacity:1;stroke:none;stroke-width:0.01368475;stroke-miterlimit:4;stroke-dasharray:none;stroke-opacity:1"
         d="m -183.26379,87.662 c -0.11687,-0.52382 -0.2125,-0.99895 -0.29495,-1.46547 -0.0745,-0.42135 -0.0985,-0.60079 -0.13946,-1.04225 -0.0151,-0.16237 -0.0367,-0.38924 -0.0482,-0.50417 -0.048,-0.48231 -0.0616,-0.84382 -0.0671,-1.77914 -0.005,-0.90861 0.01,-1.68005 0.0435,-2.1839 0.0103,-0.15482 0.0196,-0.23964 0.0414,-0.37653 0.008,-0.053 0.0249,-0.17637 0.0366,-0.27412 0.0392,-0.32771 0.0631,-0.4652 0.16671,-0.96242 0.007,-0.0316 0.007,-0.0316 0.0299,-0.0316 0.0128,0 0.0233,0.002 0.0233,0.004 0,0.002 -0.0135,0.0732 -0.0299,0.15814 -0.11313,0.58292 -0.17047,1.06631 -0.19876,1.67557 -0.0248,0.53288 -0.023,1.34598 0.006,2.75322 0.0354,1.72935 0.0695,2.09718 0.29289,3.1659 0.0536,0.25611 0.13383,0.61793 0.18042,0.81317 0.0213,0.0894 0.0388,0.16597 0.0388,0.17019 0,0.005 -0.009,0.008 -0.0261,0.008 h -0.0261 z"
         id="path5131-0"
         inkscape:connector-curvature="0" />
      <path
         style="fill:#71bdf0;fill-opacity:1;stroke:none;stroke-width:0.00483829;stroke-miterlimit:4;stroke-dasharray:none;stroke-opacity:1"
         d="m -183.47205,79.04785 c -0.001,-0.004 -0.004,-0.005 -0.015,-0.006 -0.0158,-0.002 -0.0256,-1.3e-4 -0.0307,0.005 -0.004,0.004 -0.005,0.0101 0.023,-0.118869 0.0323,-0.14544 0.23083,-1.01435 0.24177,-1.05796 0.001,-0.005 0.002,-0.005 0.0284,-0.005 h 0.0272 l -0.0168,0.0687 c -0.10305,0.42074 -0.18349,0.76922 -0.24104,1.04409 -0.009,0.0409 -0.0161,0.0724 -0.0168,0.07 z"
         id="path5133-7"
         inkscape:connector-curvature="0" />
      <ellipse
         style="opacity:0.40500004;fill:url(#radialGradient5187-8);fill-opacity:1;stroke:none;stroke-width:0.0717689;stroke-miterlimit:4;stroke-dasharray:none;stroke-opacity:1"
         id="path5137-6"
         cx="-155.80232"
         cy="82.89975"
         rx="3.6147313"
         ry="5.6389813" />
      <ellipse
         style="opacity:0.52899996;fill:url(#radialGradient5187-1-2);fill-opacity:1;stroke:none;stroke-width:4.08296537;stroke-miterlimit:4;stroke-dasharray:none;stroke-opacity:1;filter:url(#filter5217-6)"
         id="path5137-4-4"
         cx="435.52237"
         cy="348.98929"
         rx="287.77396"
         ry="229.24719"
         transform="matrix(0.03159543,0,0,0.03159543,-183.91798,62.593669)" />
    </g>
  </g>
</svg>
